<ttFont>
          <CharString index="0">
            169 -17 callsubr
            -37 -106 rlineto
            -3 -45 -32 -69 -122 -22 98 141 vhcurveto
            339 hlineto
            73 -16 154 -185 -143 -95 -92 -164 -148 76 -100 168 85 68 25 40 35 vhcurveto
            -196 400 rmoveto
            69 47 -44 -111 hvcurveto
            -250 hlineto
            2 29 6 25 10 23 rrcurveto
            40 16 36 38 64 hhcurveto
            return
          </CharString>
          <CharString index="1">
            581 -33 callsubr
            100 -25 rlineto
            -396 vlineto
            -190 -85 -72 -128 -131 -72 74 177 vhcurveto
            408 vlineto
            99 -72 callsubr
            100 -24 rlineto
            -388 vlineto
            -205 84 -111 202 187 103 94 209 vhcurveto
            401 vlineto
            94 25 rlineto
            36 -249 vlineto
            return
          </CharString>
          <CharString index="2">
            -107 callgsubr
            -15 callgsubr
            -107 callgsubr
            endchar
          </CharString>
          <CharString index="3">
            249 vlineto
            144 -81 40 -132 -72 -62 -23 -27 -31 vhcurveto
            -113 37 vlineto
            33 99 rlineto
            15 24 40 11 32 hhcurveto
            73 45 -22 -100 hvcurveto
            -43 vlineto
            -221 -4 -103 -44 -120 vvcurveto
            -81 53 -50 108 79 55 37 73 31 vhcurveto
            return
          </CharString>
          <CharString index="4">
            279 rmoveto
            -143 45 -21 23 36 vvcurveto
            49 36 29 68 35 34 -7 -19 24 vhcurveto
            31 -96 rlineto
            39 115 hlineto
            27 -35 -57 18 -67 hhcurveto
            -120 -67 -57 -88 -71 45 -34 101 -32 hvcurveto
            125 -40 26 -18 -41 vvcurveto
            -47 -34 -38 -76 -37 -48 8 27 -27 vhcurveto
            -29 98 rlineto
            -39 -116 hlineto
            -33 35 60 -22 76 hhcurveto
            128 66 61 87 68 -40 41 -89 27 hvcurveto
            return
          </CharString>
          <CharString index="5">
            234 146 rlineto
            -134 hlineto
            -132 -146 rlineto
            endchar
          </CharString>
          <CharString index="6">
            156 -17 callsubr
            -35 -114 rlineto
            -9 -19 -35 -5 -27 hhcurveto
            -95 -59 63 148 145 55 74 92 28 40 -6 -15 20 hvcurveto
            33 -109 rlineto
            37 124 hlineto
            27 -30 -65 16 -59 hhcurveto
            -143 -111 -93 -163 -160 108 -89 140 60 67 16 32 35 hvcurveto
            return
          </CharString>
          <CharString index="7">
            -19 -77 -65 -5 -33 hhcurveto
            -168 -79 125 228 216 73 132 160 31 101 -5 -42 39 hvcurveto
            49 -166 rlineto
            52 169 hlineto
            67 -72 -122 15 -71 hhcurveto
            -232 -124 -162 -232 -235 128 -150 237 82 124 17 32 72 hvcurveto
            228 -19 callgsubr
            -309 vlineto
            return
          </CharString>
          <CharString index="8">
            -32 callgsubr
            hintmask 10111000
            -94 callsubr
            hintmask 01111000
            -93 callgsubr
            hintmask 10111000
            -87 callgsubr
            vlineto
            return
          </CharString>
          <CharString index="9">
            705 -23 callsubr
            73 -13 -106 -336 -141 388 rlineto
            -65 hlineto
            -135 -384 -116 331 69 14 -45 callsubr
            85 -15 159 -433 rlineto
            65 hlineto
            136 381 139 -381 rlineto
            61 hlineto
            160 434 79 14 rlineto
            return
          </CharString>
          <CharString index="10">
            -69 -70 29 57 hvcurveto
            -32 hlineto
            -105 85 -51 85 85 84 51 105 vhcurveto
            return
          </CharString>
          <CharString index="11">
            rmoveto
            33 hlineto
            150 163 rlineto
            -40 hlineto
            -126 -73 -130 73 rlineto
            -39 hlineto
            endchar
          </CharString>
          <CharString index="12">
            61 44 -64 53 hhcurveto
            33 37 22 84 51 hvcurveto
            -25 18 rlineto
            -43 -29 -23 -13 -23 hhcurveto
            return
          </CharString>
          <CharString index="13">
            42 -23 callsubr
            72 -13 rlineto
            -266 vlineto
            -121 57 -59 107 71 68 49 97 35 vhcurveto
            return
          </CharString>
          <CharString index="14">
            -132 -64 callgsubr
            235 -145 rlineto
            endchar
          </CharString>
          <CharString index="15">
            -315 -4 rmoveto
            -63 -28 28 71 84 42 39 186 hvcurveto
            -175 -60 -47 -77 vhcurveto
            return
          </CharString>
          <CharString index="16">
            rmoveto
            19 -8 23 -5 39 -3 142 -11 rcurveline
            64 -5 32 -26 -47 vvcurveto
            -79 -82 -53 -110 -116 -59 58 76 37 16 34 32 32 vhcurveto
            124 513 rmoveto
            return
          </CharString>
          <CharString index="17">
            -48 -36 64 -62 hhcurveto
            -49 -26 -23 -64 -45 hvcurveto
            -15 -21 rlineto
            endchar
          </CharString>
          <CharString index="18">
            -76 -37 callsubr
            245 37 vlineto
            -74 21 rlineto
            209 vlineto
            82 77 80 56 11 17 -2 -8 15 vhcurveto
            31 -82 rlineto
            39 120 hlineto
            17 -33 -29 10 -27 hhcurveto
            -86 -54 -69 -72 -24 hvcurveto
            return
          </CharString>
          <CharString index="19">
            130 561 rmoveto
            37 142 rlineto
            348 hlineto
            -455 -666 rlineto
            -37 605 -19 callsubr
            -38 -140 rlineto
            -387 hlineto
            458 665 rlineto
            36 -568 -189 vlineto
            return
          </CharString>
          <CharString index="20">
            rmoveto
            223 176 rlineto
            -133 hlineto
            -123 -176 rlineto
            -146 hmoveto
            223 176 rlineto
            -133 hlineto
            -123 -176 rlineto
            endchar
          </CharString>
          <CharString index="21">
            -45 -22 41 44 43 23 43 44 hvcurveto
            4 30 rmoveto
            -83 -39 -58 -59 -56 40 -58 77 77 41 58 59 56 -38 58 -75 hvcurveto
            endchar
          </CharString>
          <CharString index="22">
            485 rmoveto
            -128 37 vlineto
            24 86 rlineto
            208 hlineto
            -286 -416 rlineto
            -27 422 129 -36 vlineto
            -25 -86 rlineto
            -244 hlineto
            286 413 rlineto
            29 vlineto
            return
          </CharString>
          <CharString index="23">
            -38 callgsubr
            96 -23 rlineto
            -631 vlineto
            -96 -10 callgsubr
            280 vlineto
            136 69 9 56 56 hvcurveto
            37 36 18 45 53 vvcurveto
            115 -72 63 -145 13 vhcurveto
            hintmask 11110100
            140 20 57 60 97 vvcurveto
            125 -94 58 -185 vhcurveto
            -297 hlineto
            200 -710 rmoveto
            325 88 vlineto
            136 58 -51 -112 -116 -62 -46 -141 hvcurveto
            -79 367 rmoveto
            303 55 vlineto
            hintmask 11111000
            117 92 -20 -125 -95 -53 -63 -131 hvcurveto
            endchar
          </CharString>
          <CharString index="24">
            -73 -10 callgsubr
            237 37 vlineto
            -69 20 rlineto
            125 vlineto
            183 58 80 91 59 31 -34 -96 vhcurveto
            -257 vlineto
            -69 -37 callsubr
            237 37 vlineto
            -73 21 rlineto
            259 vlineto
            119 -62 57 -101 -85 -63 -41 -89 -23 vhcurveto
            return
          </CharString>
          <CharString index="25">
            rlineto
            -77 callsubr
            return
          </CharString>
          <CharString index="26">
            37 -305 -5 callgsubr
            -630 vlineto
            -100 -10 callgsubr
            305 37 vlineto
            -100 22 rlineto
            301 return
          </CharString>
          <CharString index="27">
            0 43 321 44 87 -20 232 43 return
          </CharString>
          <CharString index="28">
            -75 callgsubr
            hintmask 11010000
            -73 -10 callgsubr
            237 -7 callsubr
            428 -5 callsubr
            217 229 rmoveto
            hintmask 11100100
            -37 -23 -24 -33 -39 25 -18 31 36 23 25 31 35 -24 23 -31 hvcurveto
            hintmask 11010000
            -222 hmoveto
            hintmask 11101000
            -37 -23 -24 -33 -39 26 -18 31 36 22 24 32 hvcurveto
            hintmask 11010000
            35 -23 23 -32 vhcurveto
            endchar
          </CharString>
          <CharString index="29">
            29 -5 29 -10 -31 vvcurveto
            -51 -69 -24 -36 -19 vhcurveto
            10 -24 rlineto
            59 13 102 32 73 vvcurveto
            return
          </CharString>
          <CharString index="30">
            37 -304 -37 vlineto
            return
          </CharString>
          <CharString index="31">
            -20 hstem
            190 -20 callsubr
            563 -68 callsubr
            return
          </CharString>
          <CharString index="32">
            hmoveto
            -18 callsubr
            -102 23 rlineto
            629 vlineto
            104 24 rlineto
            37 -236 vlineto
            -246 -626 -253 626 rlineto
            -215 -37 hlineto
            85 -26 rlineto
            -627 vlineto
            -96 -23 rlineto
            -37 248 37 vlineto
            -100 23 rlineto
            628 vlineto
            272 -688 rlineto
            61 hlineto
            272 688 rlineto
            -628 vlineto
            -98 -23 rlineto
            endchar
          </CharString>
          <CharString index="33">
            vlineto
            -99 -23 rlineto
            -37 248 vlineto
            275 183 79 292 292 -181 87 -259 hvcurveto
            -266 return
          </CharString>
          <CharString index="34">
            rmoveto
            68 22 -59 -105 -107 -29 -53 -59 -65 -24 54 112 105 29 53 58 hvcurveto
            5 29 rmoveto
            -108 -60 -67 -121 -131 67 -65 97 99 68 65 127 128 -70 64 -93 hvcurveto
            47 380 rmoveto
            -36 25 -518 -795 35 -24 rlineto
            14 759 rmoveto
            67 23 -56 -108 hvcurveto
            return
          </CharString>
          <CharString index="35">
            23 -82 callsubr
            return
          </CharString>
          <CharString index="36">
            -38 callgsubr
            -77 callgsubr
            264 91 vlineto
            171 134 36 181 140 -80 69 -217 hvcurveto
            -301 hlineto
            202 -386 rmoveto
            346 112 vlineto
            112 56 -53 -120 -120 -56 -53 -112 hvcurveto
            endchar
          </CharString>
          <CharString index="37">
            50 -75 callgsubr
            return
          </CharString>
          <CharString index="38">
            -18 callsubr
            -104 23 rlineto
            629 vlineto
            104 24 -82 callsubr
            66 -16 -337 -618 rlineto
            611 vlineto
            -9 callsubr
            -37 -61 callgsubr
            vlineto
            -73 16 337 619 rlineto
            -613 vlineto
            -95 -22 rlineto
            endchar
          </CharString>
          <CharString index="39">
            hmoveto
            -18 callsubr
            -101 23 rlineto
            630 vlineto
            101 -72 callsubr
            98 -24 rlineto
            -284 -366 284 vlineto
            100 24 rlineto
            -81 callsubr
            366 -301 vlineto
            -98 -22 rlineto
            return
          </CharString>
          <CharString index="40">
            hmoveto
            301 -34 callgsubr
            -91 285 hlineto
            -9 callsubr
            314 328 rmoveto
            -53 callgsubr
            -112 325 hlineto
            return
          </CharString>
          <CharString index="41">
            -78 -21 -47 callgsubr
            -81 22 rlineto
            691 -167 vlineto
            return
          </CharString>
          <CharString index="42">
            -68 -10 38 239 33 155 39 return
          </CharString>
          <CharString index="43">
            -40 callgsubr
            -304 return
          </CharString>
          <CharString index="44">
            39 -146 rlineto
            52 189 -656 -189 52 hlineto
            return
          </CharString>
          <CharString index="45">
            -46 callsubr
            229 -261 rlineto
            169 37 hlineto
            -98 24 -218 243 151 122 88 -4 callgsubr
            -230 -37 vlineto
            72 -18 -163 -150 rlineto
            471 -178 vlineto
            endchar
          </CharString>
          <CharString index="46">
            -195 rmoveto
            -64 1 -27 42 47 vvcurveto
            43 23 45 43 17 vhcurveto
            return
          </CharString>
          <CharString index="47">
            -38 callgsubr
            99 -24 rlineto
            return
          </CharString>
          <CharString index="48">
            rmoveto
            43 33 24 15 23 hhcurveto
            return
          </CharString>
          <CharString index="49">
            119 hmoveto
            192 hlineto
            379 690 83 24 rlineto
            36 -245 -36 vlineto
            81 -23 -179 -318 -186 321 70 19 rlineto
            37 -284 -37 vlineto
            92 -21 247 -413 -126 -214 -124 -28 rlineto
            return
          </CharString>
          <CharString index="50">
            -58 callgsubr
            -37 return
          </CharString>
          <CharString index="51">
            -57 -70 -29 -68 vhcurveto
            return
          </CharString>
          <CharString index="52">
            -221 -205 rmoveto
            -63 -42 25 71 85 45 24 187 hvcurveto
            -175 -50 -30 -77 vhcurveto
            355 423 rmoveto
            68 57 -76 -111 hvcurveto
            -259 hlineto
            2 35 6 31 10 27 rrcurveto
            47 16 36 47 64 hhcurveto
            return
          </CharString>
          <CharString index="53">
            rmoveto
            -74 289 74 vlineto
            endchar
          </CharString>
          <CharString index="54">
            99 -59 callgsubr
            return
          </CharString>
          <CharString index="55">
            21 -48 callsubr
            return
          </CharString>
          <CharString index="56">
            -72 -12 -36 -46 -49 vvcurveto
            -59 56 -61 112 vhcurveto
            return
          </CharString>
          <CharString index="57">
            -65 -30 -23 -22 -55 vvcurveto
            -29 13 -26 27 -23 vhcurveto
            return
          </CharString>
          <CharString index="58">
            296 -52 callsubr
            return
          </CharString>
          <CharString index="59">
            -21 252 38 468 -20 return
          </CharString>
          <CharString index="60">
            -107 -30 -53 -59 -65 -23 56 111 105 29 52 58 vhcurveto
            4 30 rmoveto
            -107 -62 -67 -121 -131 70 -65 96 97 68 60 131 129 -68 64 -94 hvcurveto
            endchar
          </CharString>
          <CharString index="61">
            -83 -23 -47 callgsubr
            -76 24 rlineto
            200 vlineto
            return
          </CharString>
          <CharString index="62">
            rlineto
            -6 callsubr
            return
          </CharString>
          <CharString index="63">
            130 93 130 return
          </CharString>
          <CharString index="64">
            16 callsubr
            -644 -366 645 vlineto
            100 22 -82 callsubr
            99 -23 rlineto
            -629 vlineto
            -99 -24 rlineto
            -37 return
          </CharString>
          <CharString index="65">
            hstemhm
            67 169 -95 95 237 93 return
          </CharString>
          <CharString index="66">
            -23 -69 callgsubr
            return
          </CharString>
          <CharString index="67">
            -37 vlineto
            77 -21 rlineto
            -368 vlineto
            -77 -22 rlineto
            -36 return
          </CharString>
          <CharString index="68">
            -22 callgsubr
            -100 -41 callsubr
            -99 22 rlineto
            return
          </CharString>
          <CharString index="69">
            14 116 151 103 -149 -64 -16 rlineto
            -38 254 38 vlineto
            -77 16 -156 210 150 171 72 13 rlineto
            37 return
          </CharString>
          <CharString index="70">
            -21 rlineto
            -37 return
          </CharString>
          <CharString index="71">
            16 -11 52 -20 -21 return
          </CharString>
          <CharString index="72">
            91 -23 rlineto
            -644 -254 645 vlineto
            92 4 callgsubr
            -292 -37 vlineto
            95 -23 rlineto
            -629 vlineto
            -99 -24 rlineto
            -37 return
          </CharString>
          <CharString index="73">
            -84 -329 35 216 81 118 37 298 27 -27 40 return
          </CharString>
          <CharString index="74">
            714 rmoveto
            return
          </CharString>
          <CharString index="75">
            -14 -21 30 31 324 29 -9 30 324 30 30 -20 hstemhm
            31 78 177 76 124 76 177 78 return
          </CharString>
          <CharString index="76">
            60 449 rmoveto
            78 -14 rlineto
            -377 vlineto
            return
          </CharString>
          <CharString index="77">
            -190 -96 -190 rlineto
            44 hlineto
            156 190 rlineto
            return
          </CharString>
          <CharString index="78">
            228 68 hstem
            55 296 rmoveto
            -68 return
          </CharString>
          <CharString index="79">
            hstemhm
            40 168 -95 95 239 95 return
          </CharString>
          <CharString index="80">
            -39 -145 rlineto
            -256 646 hlineto
            99 23 rlineto
            return
          </CharString>
          <CharString index="81">
            139 -21 40 704 37 return
          </CharString>
          <CharString index="82">
            -149 -5 38 428 38 return
          </CharString>
          <CharString index="83">
            -166 -37 vlineto
            return
          </CharString>
          <CharString index="84">
            448 rmoveto
            return
          </CharString>
          <CharString index="85">
            21 -21 750 21 callsubr
            return
          </CharString>
          <CharString index="86">
            9 callgsubr
            1 callsubr
            return
          </CharString>
          <CharString index="87">
            105 366 105 vstem
            return
          </CharString>
          <CharString index="88">
            189 -52 vlineto
            return
          </CharString>
          <CharString index="89">
            -61 callgsubr
            hlineto
            return
          </CharString>
          <CharString index="90">
            rmoveto
            -37 hlineto
            return
          </CharString>
          <CharString index="91">
            49 -35 -53 32 -84 hhcurveto
            -72 -62 -26 -27 -31 hvcurveto
            -113 37 vlineto
            33 99 rlineto
            return
          </CharString>
          <CharString index="92">
            100 -24 rlineto
            return
          </CharString>
          <CharString index="93">
            33 -9 rlineto
            67 19 33 34 48 hhcurveto
            21 31 -8 -16 40 hvcurveto
            51 -20 rlineto
            return
          </CharString>
          <CharString index="94">
            -15 -9 39 688 41 return
          </CharString>
          <CharString index="95">
            -104 -10 38 430 37 return
          </CharString>
          <CharString index="96">
            254 37 return
          </CharString>
          <CharString index="97">
            -23 callsubr
            79 -13 149 -202 -150 -179 -77 -16 rlineto
            -38 return
          </CharString>
          <CharString index="98">
            102 -72 callsubr
            97 -23 -17 callgsubr
            -97 -23 rlineto
            return
          </CharString>
          <CharString index="99">
            183 -13 40 701 38 return
          </CharString>
          <CharString index="100">
            37 vlineto
            -70 20 rlineto
            return
          </CharString>
          <CharString index="101">
            37 -4 callsubr
            vlineto
            return
          </CharString>
          <CharString index="102">
            -162 vlineto
            return
          </CharString>
          <CharString index="103">
            -254 -37 return
          </CharString>
          <CharString index="104">
            46 266 -20 hstem
            179 69 vstem
            42 484 rmoveto
            -46 137 return
          </CharString>
          <CharString index="105">
            rmoveto
            -72 -24 -30 -30 -47 hhcurveto
            -25 -29 7 23 -56 hvcurveto
            -65 26 rlineto
            return
          </CharString>
          <CharString index="106">
            0 40 325 40 345 -20 hstem
            return
          </CharString>
          <CharString index="107">
            32 277 30 return
          </CharString>
          <CharString index="108">
            482 114 return
          </CharString>
          <CharString index="109">
            46 704 -20 hstem
            169 105 254 104 255 104 vstem
            return
          </CharString>
          <CharString index="110">
            116 hstemhm
            return
          </CharString>
          <CharString index="111">
            158 -147 -197 -187 -152 -156 -184 return
          </CharString>
          <CharString index="112">
            21 -21 485 -20 hstem
            return
          </CharString>
          <CharString index="113">
            8 callsubr
            94 return
          </CharString>
          <CharString index="114">
            70 99 312 101 return
          </CharString>
          <CharString index="115">
            hstemhm
            40 96 228 return
          </CharString>
          <CharString index="116">
            hstemhm
            114 94 return
          </CharString>
          <CharString index="117">
            116 hstem
            return
          </CharString>
          <CharString index="118">
            17 -43 -37 15 -39 hhcurveto
            -72 -50 -57 -119 -23 hvcurveto
            return
          </CharString>
          <CharString index="119">
            160 105 return
          </CharString>
          <CharString index="120">
            -12 -240 56 669 1 callgsubr
            hintmask 11000000
            return
          </CharString>
          <CharString index="121">
            104 264 112 -94 94 -94 114 hintmask 11110010
            return
          </CharString>
          <CharString index="122">
            -246 -320 38 506 34 506 36 hstemhm
            return
          </CharString>
          <CharString index="123">
            vlineto
            102 -72 callsubr
            97 -23 rlineto
            return
          </CharString>
          <CharString index="124">
            -32 82 36 -12 34 hhcurveto
            93 35 102 73 16 hvcurveto
            return
          </CharString>
          <CharString index="125">
            37 251 rlineto
            -122 hlineto
            38 -251 rlineto
            return
          </CharString>
          <CharString index="126">
            114 -37 vlineto
            -37 -106 rlineto
            -3 -45 -32 -69 return
          </CharString>
          <CharString index="127">
            -167 0 43 400 42 return
          </CharString>
          <CharString index="128">
            -20 71 -56 callgsubr
            return
          </CharString>
          <CharString index="129">
            hstem
            57 132 vstem
            124 return
          </CharString>
          <CharString index="130">
            vlineto
            101 -3 callgsubr
            -304 return
          </CharString>
          <CharString index="131">
            hstem
            148 105 vstem
            253 707 rmoveto
            return
          </CharString>
          <CharString index="132">
            rlineto
            -59 hlineto
            -179 -431 -75 -17 rlineto
            return
          </CharString>
        <CharString name=".notdef">
          -119 endchar
        </CharString>
        <CharString name="A">
          -49 callsubr
          hstem
          -27 callgsubr
          284 37 vlineto
          -84 22 -288 699 rlineto
          -51 11 callgsubr
          -699 13 callgsubr
          251 253 rmoveto
          134 351 140 -351 rlineto
          endchar
        </CharString>
        <CharString name="AE">
          410 0 43 209 38 74 44 87 -20 232 43 hstem
          -27 callgsubr
          398 2 callgsubr
          vlineto
          -39 -135 rlineto
          -102 hlineto
          -130 321 rlineto
          142 hlineto
          27 -76 rlineto
          37 207 -37 hlineto
          -27 -87 rlineto
          -165 hlineto
          -122 299 rlineto
          312 hlineto
          39 -136 rlineto
          52 179 -471 11 callgsubr
          -691 13 callgsubr
          251 253 rmoveto
          134 351 140 -351 rlineto
          endchar
        </CharString>
        <CharString name="AEacute">
          390 0 43 209 38 74 44 87 -20 232 43 -43 240 hstemhm
          hintmask 11111000
          -27 callgsubr
          398 2 callgsubr
          vlineto
          -39 -135 rlineto
          -102 hlineto
          -130 321 rlineto
          142 hlineto
          27 -76 rlineto
          37 207 -37 hlineto
          -27 -87 rlineto
          -165 hlineto
          -122 299 rlineto
          312 hlineto
          39 -136 rlineto
          52 179 -471 11 callgsubr
          -691 13 callgsubr
          251 253 rmoveto
          134 351 140 -351 rlineto
          -28 511 rmoveto
          hintmask 11110100
          -102 callsubr
        </CharString>
        <CharString name="Aacute">
          -49 callsubr
          209 -20 hstem
          -27 callgsubr
          284 37 vlineto
          -84 22 -288 699 rlineto
          -51 11 callgsubr
          -699 13 callgsubr
          251 253 rmoveto
          134 351 140 -351 rlineto
          -223 511 rmoveto
          -102 callsubr
        </CharString>
        <CharString name="Abreve">
          -49 callsubr
          63 -56 callgsubr
          287 0 callsubr
          hintmask 11101110
          -27 callgsubr
          284 37 vlineto
          -84 22 -288 699 rlineto
          -51 11 callgsubr
          -699 13 callgsubr
          251 253 rmoveto
          134 351 140 -351 rlineto
          21 667 rmoveto
          hintmask 11110110
          -56 callsubr
          hintmask 11101110
          -97 callsubr
          endchar
        </CharString>
        <CharString name="Acircumflex">
          296 21 -21 758 -20 227 -20 hstem
          -27 callgsubr
          284 37 vlineto
          -84 22 -288 699 rlineto
          -51 11 callgsubr
          -699 13 callgsubr
          251 253 rmoveto
          134 351 140 -351 rlineto
          -112 675 rmoveto
          -34 hlineto
          -102 callgsubr
        </CharString>
        <CharString name="Adieresis">
          266 -52 callsubr
          91 10 callsubr
          274 6 callgsubr
          -27 callgsubr
          284 37 vlineto
          -84 22 -288 699 rlineto
          -51 11 callgsubr
          -699 13 callgsubr
          251 253 rmoveto
          134 351 140 -351 rlineto
          -236 655 rmoveto
          -105 callsubr
        </CharString>
        <CharString name="Agrave">
          -49 callsubr
          209 -20 hstem
          -27 callgsubr
          284 37 vlineto
          -84 22 -288 699 rlineto
          -51 11 callgsubr
          -699 13 callgsubr
          251 253 rmoveto
          134 351 140 -351 rlineto
          -14 512 rmoveto
          -93 callsubr
        </CharString>
        <CharString name="Amacron">
          -49 callsubr
          108 74 hstem
          -27 callgsubr
          284 37 vlineto
          -84 22 -288 699 rlineto
          -51 11 callgsubr
          -699 13 callgsubr
          251 253 rmoveto
          134 351 140 -351 rlineto
          -265 630 -54 callsubr
        </CharString>
        <CharString name="Aogonek">
          296 -218 32 207 -48 callsubr
          hstem
          697 71 vstem
          859 -186 rmoveto
          -64 1 -27 42 47 vvcurveto
          37 17 38 32 21 vhcurveto
          48 37 hlineto
          -84 22 -288 699 rlineto
          -51 11 callgsubr
          -699 -89 -10 callgsubr
          252 37 vlineto
          -90 21 75 194 rlineto
          302 hlineto
          79 -194 -87 -37 callsubr
          190 vlineto
          -49 -19 -25 -39 -40 vvcurveto
          -59 56 -61 112 vhcurveto
          -564 508 rmoveto
          134 351 140 -351 rlineto
          endchar
        </CharString>
        <CharString name="Aring">
          -49 callsubr
          93 30 171 30 hstem
          349 51 136 48 vstem
          -27 callgsubr
          284 37 vlineto
          -84 22 -288 699 rlineto
          -51 11 callgsubr
          -699 13 callgsubr
          251 253 rmoveto
          134 351 140 -351 rlineto
          -108 742 -37 callgsubr
          -86 callsubr
        </CharString>
        <CharString name="Atilde">
          -49 callsubr
          63 68 -4 68 hstemhm
          hintmask 11101000
          -27 callgsubr
          284 37 vlineto
          -84 22 -288 699 rlineto
          -51 11 callgsubr
          -699 13 callgsubr
          251 253 rmoveto
          134 351 140 -351 rlineto
          -284 517 -59 callsubr
          hintmask 11110000
          -95 callsubr
          hintmask 11101000
          -90 callsubr
        </CharString>
        <CharString name="B">
          107 0 40 325 42 303 40 hstemhm
          186 14 callsubr
          90 -84 callsubr
        </CharString>
        <CharString name="C">
          -26 callsubr
          hstem
          -16 callgsubr
          vstem
          678 -101 callgsubr
          endchar
        </CharString>
        <CharString name="CR">
          -338 endchar
        </CharString>
        <CharString name="Cacute">
          -26 callsubr
          -37 224 9 callgsubr
          hintmask 11010000
          678 -101 callgsubr
          -359 729 rmoveto
          hintmask 10110000
          -102 callsubr
        </CharString>
        <CharString name="Ccaron">
          -26 callsubr
          -37 241 9 callgsubr
          hintmask 11010000
          678 -101 callgsubr
          -274 729 rmoveto
          33 hlineto
          hintmask 10110000
          150 163 rlineto
          -40 hlineto
          -126 -73 -130 73 rlineto
          -39 hlineto
          endchar
        </CharString>
        <CharString name="Ccedilla">
          139 -215 -21 193 22 0 40 -18 -21 743 37 9 callgsubr
          262 66 hintmask 10101110
          678 241 rmoveto
          -47 hlineto
          -50 -166 rlineto
          -40 -43 -57 -16 -53 hhcurveto
          -152 -100 134 220 233 111 117 145 52 54 -14 -35 39 hvcurveto
          49 -159 rlineto
          52 162 hlineto
          57 -60 -89 26 -91 hhcurveto
          -213 -165 -146 -244 -220 136 -146 184 -21 hvcurveto
          -55 vlineto
          -78 callsubr
          hintmask 11011110
          50 -40 22 -42 3 vhcurveto
          23 vlineto
          3 4 -1 4 hhcurveto
          96 88 29 64 61 hvcurveto
          endchar
        </CharString>
        <CharString name="Ccircumflex">
          -26 callsubr
          0 41 164 -20 9 callgsubr
          hintmask 11011000
          678 -101 callgsubr
          -244 893 rmoveto
          -34 hlineto
          hintmask 10111000
          -102 callgsubr
        </CharString>
        <CharString name="Cdotaccent">
          -26 callsubr
          45 10 callsubr
          -16 callgsubr
          186 130 vstem
          678 -101 callgsubr
          -251 849 rmoveto
          -107 callgsubr
          endchar
        </CharString>
        <CharString name="D">
          237 0 42 666 42 -72 callgsubr
          endchar
        </CharString>
        <CharString name="Dcaron">
          237 0 42 666 42 214 -20 -72 callgsubr
          62 759 -96 callsubr
        </CharString>
        <CharString name="Dcroat">
          183 0 42 318 46 302 42 hstem
          135 105 386 116 vstem
          35 -74 callgsubr
        </CharString>
        <CharString name="Delta">
          69 0 57 717 -20 hstem
          87 57 rmoveto
          239 516 213 -516 rlineto
          -532 -57 rmoveto
          677 hlineto
          -316 774 rlineto
          endchar
        </CharString>
        <CharString name="E">
          81 -80 callsubr
          hstem
          189 105 vstem
          90 -105 callgsubr
          endchar
        </CharString>
        <CharString name="Eacute">
          81 -80 callsubr
          -43 240 hstemhm
          189 105 hintmask 11110100
          90 -105 callgsubr
          193 51 rmoveto
          hintmask 11101100
          -102 callsubr
        </CharString>
        <CharString name="Ebreve">
          81 -80 callsubr
          51 -56 callgsubr
          189 105 -53 0 callsubr
          hintmask 1111011010000000
          90 -105 callgsubr
          460 207 rmoveto
          hintmask 1111101010000000
          -56 callsubr
          hintmask 1111010110000000
          -97 callsubr
          endchar
        </CharString>
        <CharString name="Ecaron">
          81 -80 callsubr
          214 -20 hstem
          189 105 vstem
          90 -105 callgsubr
          298 51 -96 callsubr
        </CharString>
        <CharString name="Ecircumflex">
          81 -80 callsubr
          0 51 -18 callgsubr
          189 105 hintmask 11110110
          90 -105 callgsubr
          352 215 rmoveto
          -34 hlineto
          hintmask 11101110
          -102 callgsubr
        </CharString>
        <CharString name="Edieresis">
          81 -80 callsubr
          86 3 callsubr
          189 105 -56 -44 callsubr
          hintmask 11111101
          90 -105 callgsubr
          213 202 rmoveto
          hintmask 11111011
          -105 callsubr
        </CharString>
        <CharString name="Edotaccent">
          81 -80 callsubr
          75 10 callsubr
          189 105 48 130 vstem
          90 -105 callgsubr
          317 191 rmoveto
          -107 callgsubr
          endchar
        </CharString>
        <CharString name="Egrave">
          81 -80 callsubr
          -43 240 hstemhm
          189 105 hintmask 11110100
          90 -105 callgsubr
          461 52 rmoveto
          hintmask 11101100
          -93 callsubr
        </CharString>
        <CharString name="Emacron">
          81 -80 callsubr
          88 74 hstem
          189 105 vstem
          90 -105 callgsubr
          168 162 -54 callsubr
        </CharString>
        <CharString name="Eogonek">
          81 -227 32 195 43 321 44 87 -20 232 43 hstemhm
          189 105 198 71 -71 168 hintmask 11111110
          654 -61 callsubr
          hintmask 11111101
          31 2 callgsubr
          hlineto
          -39 -135 rlineto
          -274 321 193 hlineto
          27 -76 rlineto
          37 207 -37 hlineto
          -27 -87 rlineto
          -193 299 -22 callgsubr
          -99 -23 rlineto
          -37 510 vlineto
          -51 callsubr
          endchar
        </CharString>
        <CharString name="Eth">
          186 0 42 318 46 302 42 hstem
          120 105 386 116 vstem
          20 -74 callgsubr
        </CharString>
        <CharString name="Euro">
          134 -21 40 256 64 82 64 238 37 hstem
          25 421 rmoveto
          53 hlineto
          -2 -17 -1 -17 -17 vvcurveto
          -11 0 -9 1 -11 vhcurveto
          -51 -64 59 hlineto
          -187 37 146 -109 181 hhcurveto
          96 88 29 64 61 hvcurveto
          169 -47 vlineto
          -50 -166 rlineto
          -40 -43 -57 -16 -53 hhcurveto
          -129 -89 95 161 -27 hvcurveto
          302 64 -309 34 hlineto
          16 1 16 1 16 vhcurveto
          307 64 -299 hlineto
          159 31 95 79 120 hhcurveto
          52 51 -11 -35 39 hvcurveto
          49 -159 rlineto
          52 162 hlineto
          57 -60 -86 23 -91 hhcurveto
          -175 -147 -102 -173 -43 hvcurveto
          -63 hlineto
          endchar
        </CharString>
        <CharString name="F">
          63 21 -21 352 45 310 43 hstem
          190 105 vstem
          552 276 rmoveto
          206 -37 vlineto
          -28 -85 rlineto
          -192 310 -39 callsubr
          293 192 vlineto
          28 -76 rlineto
          endchar
        </CharString>
        <CharString name="G">
          -8 callsubr
          hstem
          -16 callgsubr
          422 105 vstem
          493 287 rmoveto
          105 -23 rlineto
          -213 vlineto
          -100 callsubr
          endchar
        </CharString>
        <CharString name="Gbreve">
          -8 callsubr
          35 -56 callgsubr
          60 116 73 0 callsubr
          10 105 hintmask 11011111
          493 287 rmoveto
          105 -23 rlineto
          -213 vlineto
          -100 callsubr
          65 633 rmoveto
          hintmask 11101111
          -56 callsubr
          hintmask 11011111
          -97 callsubr
          endchar
        </CharString>
        <CharString name="Gcircumflex">
          -8 callsubr
          0 35 164 -20 9 callgsubr
          422 105 hintmask 11011100
          493 287 rmoveto
          105 -23 rlineto
          -213 vlineto
          -100 callsubr
          -49 641 rmoveto
          -34 hlineto
          hintmask 10111100
          -102 callgsubr
        </CharString>
        <CharString name="Gdotaccent">
          -8 callsubr
          88 10 callsubr
          -16 callgsubr
          183 130 109 105 vstem
          493 287 rmoveto
          105 -23 rlineto
          -213 vlineto
          -100 callsubr
          -69 646 rmoveto
          -107 callgsubr
          endchar
        </CharString>
        <CharString name="H">
          338 21 -21 360 45 345 -76 callsubr
          endchar
        </CharString>
        <CharString name="Hbar">
          339 21 -21 360 45 139 44 -44 206 hstemhm
          190 105 366 105 hintmask 11101100
          91 544 rmoveto
          99 -485 hlineto
          -100 -10 callgsubr
          305 37 vlineto
          -100 22 rlineto
          301 366 -301 vlineto
          -98 -22 -69 callgsubr
          -101 23 rlineto
          484 102 44 -102 102 vlineto
          101 23 rlineto
          hintmask 11011100
          -77 callsubr
          98 -24 rlineto
          hintmask 11101100
          -101 -366 101 vlineto
          100 24 rlineto
          hintmask 11011100
          37 -305 -5 callgsubr
          hintmask 11101100
          -101 -99 vlineto
          204 -183 rmoveto
          139 366 -139 vlineto
          endchar
        </CharString>
        <CharString name="Hcircumflex">
          338 21 -21 360 45 345 51 164 -76 callsubr
          -72 928 rmoveto
          -34 hlineto
          -102 callgsubr
        </CharString>
        <CharString name="I">
          23 callgsubr
          hstem
          189 105 vstem
          90 -85 callgsubr
          -61 callgsubr
          vlineto
          -100 22 rlineto
          631 vlineto
          -64 callsubr
          vlineto
          endchar
        </CharString>
        <CharString name="Iacute">
          -165 -82 callgsubr
          217 -20 hstem
          159 105 vstem
          60 -85 callgsubr
          -61 callgsubr
          vlineto
          -100 22 rlineto
          631 vlineto
          -64 callsubr
          vlineto
          43 51 rmoveto
          -102 callsubr
        </CharString>
        <CharString name="Ibreve">
          -140 -22 callsubr
          70 32 81 105 91 30 hintmask 11011110
          84 -85 callgsubr
          -61 callgsubr
          vlineto
          -100 22 rlineto
          631 vlineto
          -64 callsubr
          vlineto
          295 207 rmoveto
          hintmask 11101110
          -56 callsubr
          hintmask 11011110
          -97 callsubr
          endchar
        </CharString>
        <CharString name="Icircumflex">
          -236 21 -55 callgsubr
          51 164 -20 hstem
          138 105 vstem
          39 -85 callgsubr
          -61 callgsubr
          vlineto
          -100 22 rlineto
          631 vlineto
          -64 callsubr
          vlineto
          165 215 rmoveto
          -34 hlineto
          -102 callgsubr
        </CharString>
        <CharString name="Idieresis">
          -219 -82 callgsubr
          93 3 callsubr
          33 130 -4 105 -8 130 hintmask 11101000
          60 -85 callgsubr
          -61 callgsubr
          vlineto
          -100 22 rlineto
          631 vlineto
          -64 callsubr
          vlineto
          38 189 rmoveto
          hintmask 11110100
          -105 callsubr
        </CharString>
        <CharString name="Idotaccent">
          23 callgsubr
          118 3 callsubr
          189 105 -105 121 hintmask 11110000
          90 -85 callgsubr
          -61 callgsubr
          vlineto
          -100 22 rlineto
          631 vlineto
          -64 callsubr
          vlineto
          155 214 rmoveto
          -39 -26 -21 -37 -37 26 -21 39 hvcurveto
          hintmask 11101000
          43 22 25 33 36 -26 22 -39 hvcurveto
          endchar
        </CharString>
        <CharString name="Igrave">
          -249 -82 callgsubr
          217 -20 hstem
          130 105 vstem
          31 -85 callgsubr
          -61 callgsubr
          vlineto
          -100 22 rlineto
          631 vlineto
          -64 callsubr
          vlineto
          285 52 rmoveto
          -93 callsubr
        </CharString>
        <CharString name="Imacron">
          23 callgsubr
          133 74 hstem
          189 105 vstem
          90 -85 callgsubr
          -61 callgsubr
          vlineto
          -100 22 rlineto
          631 vlineto
          -64 callsubr
          vlineto
          8 187 -54 callsubr
        </CharString>
        <CharString name="Iogonek">
          -135 -227 32 216 -63 callgsubr
          hstemhm
          156 71 -71 238 -205 105 hintmask 11110000
          318 -61 callsubr
          hintmask 11101000
          101 37 hlineto
          hintmask 11100100
          -100 22 rlineto
          631 vlineto
          hintmask 11101000
          100 -72 callsubr
          hintmask 11100100
          -57 callsubr
          174 vlineto
          hintmask 11110000
          -51 callsubr
          endchar
        </CharString>
        <CharString name="Itilde">
          23 callgsubr
          71 68 -4 68 hstemhm
          189 105 hintmask 11011000
          90 -85 callgsubr
          -61 callgsubr
          vlineto
          -100 22 rlineto
          631 vlineto
          -64 callsubr
          vlineto
          -16 57 -59 callsubr
          hintmask 11101000
          -95 callsubr
          hintmask 11011000
          -90 callsubr
        </CharString>
        <CharString name="J">
          -144 -219 -21 990 -81 callgsubr
          endchar
        </CharString>
        <CharString name="Jcircumflex">
          -144 -219 -21 990 51 164 -81 callgsubr
          166 215 rmoveto
          -34 hlineto
          -102 callgsubr
        </CharString>
        <CharString name="K">
          243 -82 callgsubr
          hstem
          189 105 vstem
          490 -38 callgsubr
          78 -19 -274 -296 rlineto
          292 vlineto
          100 23 rlineto
          37 -304 -88 callgsubr
          89 4 callgsubr
          -254 vlineto
          endchar
        </CharString>
        <CharString name="L">
          83 0 44 706 -20 hstem
          190 105 vstem
          90 -38 callgsubr
          100 -59 callgsubr
          -100 -23 rlineto
          -37 552 -19 callsubr
          -27 callsubr
          37 -304 vlineto
          endchar
        </CharString>
        <CharString name="Lacute">
          83 0 44 706 -20 217 -20 hstem
          190 105 vstem
          90 -38 callgsubr
          100 -59 callgsubr
          -100 -23 rlineto
          -37 552 -19 callsubr
          -27 callsubr
          37 -304 vlineto
          50 51 rmoveto
          -102 callsubr
        </CharString>
        <CharString name="Lcaron">
          83 0 44 706 1 callgsubr
          190 105 hintmask 10110000
          507 571 -95 callgsubr
          -371 142 rmoveto
          100 -59 callgsubr
          -100 -23 rlineto
          -37 552 -19 callsubr
          -27 callsubr
          hintmask 11010000
          37 -304 vlineto
          endchar
        </CharString>
        <CharString name="Ldot">
          83 0 44 310 131 265 -20 hstem
          190 105 121 132 vstem
          90 -38 callgsubr
          100 -59 callgsubr
          -100 -23 rlineto
          -37 552 -19 callsubr
          -27 callsubr
          37 -304 vlineto
          393 -265 -42 callgsubr
        </CharString>
        <CharString name="Lslash">
          -52 0 44 706 -20 hstem
          149 105 vstem
          21 163 rmoveto
          33 -32 95 95 rlineto
          -166 vlineto
          -100 -23 rlineto
          -37 552 -19 callsubr
          -39 -145 rlineto
          -256 287 hlineto
          140 141 -32 32 -108 -108 rlineto
          294 vlineto
          99 -72 callsubr
          100 -24 rlineto
          -398 vlineto
          endchar
        </CharString>
        <CharString name="M">
          522 -82 callgsubr
          hstem
          186 52 605 104 vstem
          745 -75 callsubr
        </CharString>
        <CharString name="N">
          340 -82 callgsubr
          hstem
          183 50 488 50 vstem
          623 -38 callgsubr
          98 -26 rlineto
          -529 vlineto
          -408 592 rlineto
          -223 -37 hlineto
          93 -26 rlineto
          -628 vlineto
          -93 -10 callgsubr
          241 37 vlineto
          -98 22 rlineto
          627 vlineto
          468 -686 rlineto
          70 688 hlineto
          98 25 rlineto
          37 -246 vlineto
          endchar
        </CharString>
        <CharString name="NULL">
          -619 endchar
        </CharString>
        <CharString name="Nacute">
          340 -82 callgsubr
          217 -20 hstem
          183 50 488 50 vstem
          623 -38 callgsubr
          98 -26 rlineto
          -529 vlineto
          -408 592 rlineto
          -223 -37 hlineto
          93 -26 rlineto
          -628 vlineto
          -93 -10 callgsubr
          241 37 vlineto
          -98 22 rlineto
          627 vlineto
          468 -686 rlineto
          70 688 hlineto
          98 25 rlineto
          37 -246 vlineto
          -246 51 rmoveto
          -102 callsubr
        </CharString>
        <CharString name="Ncaron">
          340 -82 callgsubr
          234 -20 hstem
          183 50 488 50 vstem
          623 -38 callgsubr
          98 -26 rlineto
          -529 vlineto
          -408 592 rlineto
          -223 -37 hlineto
          93 -26 rlineto
          -628 vlineto
          -93 -10 callgsubr
          241 37 vlineto
          -98 22 rlineto
          627 vlineto
          468 -686 rlineto
          70 688 hlineto
          98 25 rlineto
          37 -246 vlineto
          -140 51 -96 callsubr
        </CharString>
        <CharString name="Ntilde">
          170 -82 callgsubr
          153 68 -4 68 hstemhm
          199 50 488 50 hintmask 11011100
          639 -38 callgsubr
          98 -26 rlineto
          -529 vlineto
          -408 592 rlineto
          -223 -37 hlineto
          93 -26 rlineto
          -628 vlineto
          -93 -10 callgsubr
          241 37 vlineto
          -98 22 rlineto
          627 vlineto
          468 -686 rlineto
          70 688 hlineto
          98 25 rlineto
          37 -246 vlineto
          -372 139 -90 callgsubr
        </CharString>
        <CharString name="O">
          -48 callgsubr
          hstem
          -16 callgsubr
          1 callsubr
          vstem
          417 -106 callgsubr
          endchar
        </CharString>
        <CharString name="OE">
          527 0 40 324 44 87 -20 232 43 hstem
          71 116 471 82 vstem
          427 750 rmoveto
          -204 -152 -129 -248 -240 142 -133 213 hvcurveto
          680 2 callgsubr
          hlineto
          -39 -135 rlineto
          -274 321 193 hlineto
          27 -76 rlineto
          37 207 -37 hlineto
          -27 -87 rlineto
          -193 299 256 hlineto
          39 -136 rlineto
          52 179 hlineto
          -659 -40 rmoveto
          149 76 -96 -220 5 hvcurveto
          -17 vlineto
          -238 -82 -99 -152 -161 -76 113 220 229 82 108 159 vhcurveto
          endchar
        </CharString>
        <CharString name="Oacute">
          -48 callgsubr
          -40 219 -21 callsubr
          hintmask 11011000
          417 -106 callgsubr
          -99 33 rmoveto
          hintmask 10111000
          -102 callsubr
        </CharString>
        <CharString name="Obreve">
          -48 callgsubr
          33 -56 callgsubr
          60 116 72 0 callsubr
          71 114 hintmask 11011111
          417 -106 callgsubr
          141 189 rmoveto
          hintmask 11101111
          -56 callsubr
          hintmask 11011111
          -97 callsubr
          endchar
        </CharString>
        <CharString name="Ocircumflex">
          -48 callgsubr
          0 33 164 -20 -21 callsubr
          hintmask 11011100
          417 -106 callgsubr
          10 197 rmoveto
          -34 hlineto
          hintmask 10111100
          -102 callgsubr
        </CharString>
        <CharString name="Odieresis">
          -48 callgsubr
          45 10 callsubr
          -16 callgsubr
          49 -44 callsubr
          80 114 vstem
          417 -106 callgsubr
          -126 161 rmoveto
          -105 callsubr
        </CharString>
        <CharString name="Ograve">
          -48 callgsubr
          -40 219 -21 callsubr
          hintmask 11011000
          417 -106 callgsubr
          123 34 rmoveto
          hintmask 10111000
          -93 callsubr
        </CharString>
        <CharString name="Ohungarumlaut">
          -48 callgsubr
          33 176 hstem
          -16 callgsubr
          1 callsubr
          vstem
          417 -106 callgsubr
          10 33 -87 callsubr
        </CharString>
        <CharString name="Omacron">
          -48 callgsubr
          95 74 hstem
          -16 callgsubr
          1 callsubr
          vstem
          417 -106 callgsubr
          -142 169 -54 callsubr
        </CharString>
        <CharString name="Oslash">
          210 -120 -21 122 40 707 40 93 -20 hstem
          58 116 1 callsubr
          vstem
          -89 callgsubr
          endchar
        </CharString>
        <CharString name="Oslashacute">
          213 -120 -21 122 40 707 40 -40 219 hstemhm
          58 116 1 callsubr
          hintmask 11101100
          -89 callgsubr
          -347 424 rmoveto
          hintmask 11011100
          -102 callsubr
        </CharString>
        <CharString name="Otilde">
          -48 callgsubr
          33 68 -4 68 -21 callsubr
          hintmask 11011100
          417 -106 callgsubr
          -180 39 -90 callgsubr
        </CharString>
        <CharString name="P">
          99 21 -21 324 40 346 25 callgsubr
          90 -71 callsubr
        </CharString>
        <CharString name="Q">
          200 -211 -21 958 42 hstem
          60 115 1 callsubr
          vstem
          415 726 rmoveto
          150 92 -114 -238 -238 -92 -112 -150 -164 -76 135 216 229 83 122 157 hvcurveto
          374 -925 rmoveto
          -154 13 -49 25 -93 149 35 10 rcurveline
          147 43 96 137 195 vvcurveto
          248 -153 147 -203 -205 -150 -151 -243 -223 128 -151 195 -19 vhcurveto
          -132 71 92 -81 205 hhcurveto
          38 hlineto
          endchar
        </CharString>
        <CharString name="R">
          228 21 -21 339 34 337 25 callgsubr
          688 59 -97 callgsubr
          endchar
        </CharString>
        <CharString name="Racute">
          228 -21 callgsubr
          -40 237 hstemhm
          187 105 280 116 hintmask 11101100
          688 59 -97 callgsubr
          -8 428 rmoveto
          hintmask 11011100
          -102 callsubr
        </CharString>
        <CharString name="Rcaron">
          228 -21 callgsubr
          214 -20 -28 callgsubr
          688 59 -97 callgsubr
          80 428 -96 callsubr
        </CharString>
        <CharString name="S">
          -13 callsubr
          hstem
          7 callsubr
          vstem
          379 -104 callgsubr
          endchar
        </CharString>
        <CharString name="Sacute">
          -13 callsubr
          -41 229 hstemhm
          7 callsubr
          hintmask 11011000
          379 -104 callgsubr
          -170 383 rmoveto
          hintmask 10111000
          -102 callsubr
        </CharString>
        <CharString name="Scaron">
          -42 -9 39 688 41 -41 246 hstemhm
          43 99 312 101 hintmask 11011000
          352 -104 callgsubr
          -72 383 rmoveto
          33 hlineto
          hintmask 10111000
          150 163 rlineto
          -40 hlineto
          -126 -73 -130 73 rlineto
          -39 hlineto
          endchar
        </CharString>
        <CharString name="Scedilla">
          -15 -215 -21 193 34 0 39 688 41 hstemhm
          70 99 94 124 -66 66 94 101 hintmask 10111101
          379 418 rmoveto
          -80 40 -130 37 108 vvcurveto
          75 71 40 76 37 49 -10 -20 37 vhcurveto
          46 -152 rlineto
          51 146 hlineto
          59 -62 -98 18 -67 hhcurveto
          -164 -75 -103 -97 -106 90 -59 91 -37 hvcurveto
          90 -45 137 -38 3 -123 rrcurveto
          -96 -5 -113 -25 -59 hhcurveto
          -45 -50 15 21 -33 hvcurveto
          -43 162 rlineto
          -58 -165 hlineto
          17 -11 18 -10 20 -9 35 -16 45 -16 53 -7 rrcurveto
          -66 vlineto
          hintmask 11011011
          -78 callsubr
          50 -40 22 -42 3 vhcurveto
          34 2 vlineto
          116 159 61 144 115 -102 64 -101 43 hvcurveto
          endchar
        </CharString>
        <CharString name="Scircumflex">
          -13 callsubr
          0 42 -18 callgsubr
          7 callsubr
          hintmask 11011100
          379 -104 callgsubr
          -46 547 rmoveto
          -34 hlineto
          hintmask 10111100
          -102 callgsubr
        </CharString>
        <CharString name="T">
          97 5 callgsubr
          hstemhm
          304 105 hintmask 10110000
          207 hmoveto
          -50 callgsubr
          hintmask 11010000
          -63 callsubr
          hintmask 10110000
          -49 callgsubr
          endchar
        </CharString>
        <CharString name="Tbar">
          97 21 -21 362 43 156 189 -43 43 hstemhm
          304 105 hintmask 11011000
          118 362 rmoveto
          186 -302 hlineto
          -97 -41 callsubr
          -102 22 rlineto
          303 203 43 -203 302 186 vlineto
          hintmask 11101000
          -63 callsubr
          hintmask 11011000
          39 146 rlineto
          183 -302 -186 hlineto
          endchar
        </CharString>
        <CharString name="Tcaron">
          97 5 callgsubr
          214 -20 hstemhm
          304 105 hintmask 10111000
          207 hmoveto
          -50 callgsubr
          hintmask 11011000
          -63 callsubr
          hintmask 10111000
          -49 callgsubr
          135 764 -96 callsubr
        </CharString>
        <CharString name="Thorn">
          10 0 204 -44 44 400 44 -44 146 hstemhm
          206 106 275 117 hintmask 10101100
          312 648 rmoveto
          40 vlineto
          88 36 rlineto
          hintmask 10011100
          26 -292 -36 vlineto
          98 -26 rlineto
          -627 vlineto
          -98 -25 rlineto
          -36 307 36 vlineto
          -103 25 rlineto
          hintmask 01101100
          99 89 vlineto
          188 115 97 153 183 -137 55 -162 hvcurveto
          -93 -444 rmoveto
          400 88 vlineto
          123 64 -76 -121 -136 -85 -67 -132 hvcurveto
          endchar
        </CharString>
        <CharString name="U">
          -41 callgsubr
          hstem
          12 callsubr
          416 55 vstem
          -106 callsubr
          endchar
        </CharString>
        <CharString name="Uacute">
          -41 callgsubr
          217 -20 hstem
          12 callsubr
          416 55 vstem
          -106 callsubr
          -233 51 rmoveto
          -102 callsubr
        </CharString>
        <CharString name="Ubreve">
          271 -15 46 719 21 callsubr
          12 callsubr
          24 0 callsubr
          53 55 hintmask 11011111
          -106 callsubr
          17 207 rmoveto
          hintmask 11101111
          -56 callsubr
          hintmask 11011111
          -97 callsubr
          endchar
        </CharString>
        <CharString name="Ucircumflex">
          -44 callgsubr
          51 164 -20 hstem
          12 callsubr
          416 55 vstem
          -106 callsubr
          -92 215 rmoveto
          -34 hlineto
          -102 callgsubr
        </CharString>
        <CharString name="Udieresis">
          -41 callgsubr
          89 10 callsubr
          12 callsubr
          17 -44 callsubr
          46 55 vstem
          -106 callsubr
          -234 185 rmoveto
          -105 callsubr
        </CharString>
        <CharString name="Ugrave">
          -41 callgsubr
          217 -20 hstem
          12 callsubr
          416 55 vstem
          -106 callsubr
          17 52 rmoveto
          -93 callsubr
        </CharString>
        <CharString name="Uhungarumlaut">
          -41 callgsubr
          71 176 hstem
          12 callsubr
          416 55 vstem
          -106 callsubr
          -123 51 -87 callsubr
        </CharString>
        <CharString name="Umacron">
          -41 callgsubr
          131 74 hstem
          12 callsubr
          416 55 vstem
          -106 callsubr
          -281 185 -54 callsubr
        </CharString>
        <CharString name="Uogonek">
          271 -227 32 180 46 719 -20 hstem
          12 callsubr
          123 71 222 55 vstem
          550 -195 rmoveto
          -64 1 -27 42 47 vvcurveto
          35 16 36 29 23 vhcurveto
          151 19 81 93 187 vvcurveto
          401 vlineto
          94 25 rlineto
          36 -249 -36 vlineto
          100 -25 rlineto
          -396 vlineto
          -190 -85 -72 -128 -131 -72 74 177 vhcurveto
          408 vlineto
          99 -72 callsubr
          100 -24 rlineto
          -388 vlineto
          -205 84 -111 202 vhcurveto
          2 hlineto
          -40 -20 -20 -36 -36 vvcurveto
          -59 56 -61 112 vhcurveto
          endchar
        </CharString>
        <CharString name="Uring">
          -41 callgsubr
          71 30 171 30 hstem
          12 callsubr
          88 51 136 48 93 55 vstem
          -106 callsubr
          -110 252 -37 callgsubr
          -86 callsubr
        </CharString>
        <CharString name="Utilde">
          -41 callgsubr
          71 68 -4 68 hstemhm
          12 callsubr
          416 55 hintmask 11011100
          -106 callsubr
          -305 57 -90 callgsubr
        </CharString>
        <CharString name="V">
          254 13 -21 758 -20 hstem
          588 -33 callsubr
          86 -25 -203 -572 -223 574 96 22 -82 callsubr
          91 -22 276 -699 rlineto
          59 hlineto
          283 696 84 26 rlineto
          36 -245 vlineto
          endchar
        </CharString>
        <CharString name="W">
          668 -82 callgsubr
          hstem
          -98 callgsubr
          endchar
        </CharString>
        <CharString name="Wacute">
          668 -82 callgsubr
          217 -20 hstem
          -98 callgsubr
          -451 51 rmoveto
          -102 callsubr
        </CharString>
        <CharString name="Wcircumflex">
          668 -82 callgsubr
          235 -20 hstem
          -98 callgsubr
          -335 215 rmoveto
          -34 hlineto
          -102 callgsubr
        </CharString>
        <CharString name="Wdieresis">
          668 -82 callgsubr
          92 10 callsubr
          485 6 callgsubr
          -98 callgsubr
          -452 188 rmoveto
          -105 callsubr
        </CharString>
        <CharString name="Wgrave">
          668 -82 callgsubr
          217 -20 hstem
          -98 callgsubr
          -226 52 rmoveto
          -93 callsubr
        </CharString>
        <CharString name="X">
          211 -82 callgsubr
          hstem
          50 -76 callgsubr
        </CharString>
        <CharString name="Y">
          180 -82 callgsubr
          hstem
          353 105 vstem
          -96 callgsubr
          endchar
        </CharString>
        <CharString name="Yacute">
          180 -82 callgsubr
          217 -20 hstem
          353 105 vstem
          -96 callgsubr
          296 51 rmoveto
          -102 callsubr
        </CharString>
        <CharString name="Ycircumflex">
          180 21 -55 callgsubr
          51 164 -20 hstem
          353 105 vstem
          -96 callgsubr
          426 215 rmoveto
          -34 hlineto
          -102 callgsubr
        </CharString>
        <CharString name="Ydieresis">
          180 -82 callgsubr
          84 3 callsubr
          253 130 -30 105 18 130 hintmask 11101100
          -96 callgsubr
          288 180 rmoveto
          hintmask 11110100
          -105 callsubr
        </CharString>
        <CharString name="Ygrave">
          180 -82 callgsubr
          217 -20 hstem
          353 105 vstem
          -96 callgsubr
          501 52 rmoveto
          -93 callsubr
        </CharString>
        <CharString name="Z">
          7 callgsubr
          hstem
          -88 callsubr
          endchar
        </CharString>
        <CharString name="Zacute">
          7 callgsubr
          -47 244 hstemhm
          hintmask 11000000
          -88 callsubr
          191 240 rmoveto
          hintmask 10100000
          -102 callsubr
        </CharString>
        <CharString name="Zcaron">
          7 callgsubr
          214 -20 hstem
          -88 callsubr
          283 240 -96 callsubr
        </CharString>
        <CharString name="Zdotaccent">
          7 callgsubr
          72 10 callsubr
          -88 callsubr
          289 377 rmoveto
          -107 callgsubr
          endchar
        </CharString>
        <CharString name="a">
          -65 callgsubr
          6 callsubr
          hintmask 10111100
          458 60 rmoveto
          -104 callsubr
          hintmask 01111100
          -36 callgsubr
          hintmask 10111100
          -92 callsubr
          endchar
        </CharString>
        <CharString name="aacute">
          -65 callgsubr
          257 -20 6 callsubr
          hintmask 10111110
          458 60 rmoveto
          -104 callsubr
          hintmask 01111110
          -36 callgsubr
          hintmask 10111110
          -92 callsubr
          -78 571 rmoveto
          -102 callsubr
        </CharString>
        <CharString name="abreve">
          -65 callgsubr
          101 -56 callgsubr
          40 96 -59 32 255 52 -52 94 -72 30 hintmask 1011101001000000
          458 60 rmoveto
          -104 callsubr
          hintmask 0111101001000000
          -36 callgsubr
          hintmask 1011011010000000
          -92 callsubr
          hintmask 1011011000100000
          159 717 rmoveto
          hintmask 1011101010000000
          -56 callsubr
          hintmask 1011010110000000
          -97 callsubr
          endchar
        </CharString>
        <CharString name="acircumflex">
          -9 42 -12 -21 33 222 0 35 0 165 0 38 0 93 164 -20 6 callsubr
          hintmask 1001010111000000
          458 60 rmoveto
          -104 callsubr
          hintmask 0101010111000000
          -36 callgsubr
          hintmask 0110101111000000
          -92 callsubr
          36 717 rmoveto
          -34 hlineto
          -102 callgsubr
        </CharString>
        <CharString name="acute">
          -231 625 -21 146 -20 hstem
          66 604 rmoveto
          -102 callsubr
        </CharString>
        <CharString name="adieresis">
          -65 callgsubr
          147 3 callsubr
          40 96 -56 120 93 130 -59 94 hintmask 1011101010000000
          458 60 rmoveto
          249 vlineto
          144 -81 40 -132 -72 -62 -23 -27 -31 vhcurveto
          -113 37 vlineto
          33 99 rlineto
          15 24 40 11 32 hhcurveto
          73 45 -22 -100 hvcurveto
          -43 vlineto
          hintmask 1011110100000000
          -221 -4 -103 -44 -120 vvcurveto
          -81 53 -50 108 79 55 37 73 31 vhcurveto
          hintmask 0111110010000000
          -36 callgsubr
          hintmask 1011110010000000
          -92 callsubr
          -92 723 rmoveto
          -39 -26 -21 -37 -37 26 -21 39 hvcurveto
          hintmask 1011101100000000
          43 22 25 33 36 -26 22 -39 hvcurveto
          -15 callgsubr
          -107 callgsubr
          endchar
        </CharString>
        <CharString name="ae">
          15 callgsubr
          hstemhm
          43 96 232 94 259 71 -71 91 hintmask 11101101
          -9 callgsubr
          hintmask 11011110
          -16 callsubr
          hintmask 11101110
          -66 callgsubr
          hintmask 11101101
          -55 callsubr
          endchar
        </CharString>
        <CharString name="aeacute">
          15 callgsubr
          277 -20 hstemhm
          43 96 232 94 259 91 hintmask 11101111
          -9 callgsubr
          hintmask 11011111
          -16 callsubr
          hintmask 11101111
          -66 callgsubr
          -55 callsubr
          -263 148 rmoveto
          -102 callsubr
        </CharString>
        <CharString name="agrave">
          -65 callgsubr
          257 -20 6 callsubr
          hintmask 10111110
          458 60 rmoveto
          -104 callsubr
          hintmask 01111110
          -36 callgsubr
          hintmask 10111110
          -92 callsubr
          162 572 rmoveto
          -93 callsubr
        </CharString>
        <CharString name="amacron">
          -65 callgsubr
          123 74 6 callsubr
          hintmask 10111110
          458 60 rmoveto
          -104 callsubr
          hintmask 01111110
          -36 callgsubr
          hintmask 10111110
          -92 callsubr
          -122 657 -54 callsubr
        </CharString>
        <CharString name="ampersand">
          185 -15 35 1 -21 732 33 hstemhm
          55 106 -22 96 218 78 103 45 hintmask 01101110
          639 hmoveto
          155 37 hlineto
          -79 21 -102 99 rlineto
          53 97 13 63 74 vvcurveto
          -45 hlineto
          -82 -12 -48 -37 -74 vhcurveto
          -234 237 rlineto
          131 56 49 39 86 vvcurveto
          96 -79 64 -109 -120 -84 -67 -100 -64 22 -46 75 -80 vhcurveto
          hintmask 10110110
          -131 -72 -50 -48 -93 vvcurveto
          -125 117 -85 150 91 69 26 71 71 vhcurveto
          hintmask 01110110
          -28 28 rmoveto
          hintmask 10110110
          -60 -51 -62 -30 -73 hhcurveto
          -101 -77 78 116 77 24 53 76 36 hvcurveto
          67 70 rmoveto
          -1 -48 56 -4 10 vhcurveto
          hintmask 10101110
          -31 41 -10 30 41 vvcurveto
          67 47 38 63 68 40 -48 -65 -76 -29 -49 -96 -44 vhcurveto
          endchar
        </CharString>
        <CharString name="aogonek">
          -227 32 186 -68 callgsubr
          8 callsubr
          81 -81 94 hintmask 10111110
          536 -61 callsubr
          31 37 hlineto
          hintmask 11011101
          -84 23 rlineto
          -104 callsubr
          hintmask 10111110
          -101 116 vlineto
          -51 callsubr
          hintmask 11011110
          -315 260 rmoveto
          -63 -28 28 71 84 42 39 186 hvcurveto
          -175 -60 -47 -77 vhcurveto
          endchar
        </CharString>
        <CharString name="approxequal">
          -1 83 84 -76 -21 101 84 35 84 4 84 14 -20 hstemhm
          hintmask 10110100
          556 476 -2 callsubr
          hintmask 10111000
          11 callsubr
          -14 callsubr
          17 callsubr
          hintmask 10110100
          -32 -196 -2 callsubr
          11 callsubr
          hintmask 01111000
          -14 callsubr
          hintmask 10111000
          17 callsubr
          endchar
        </CharString>
        <CharString name="aring">
          -87 -65 callgsubr
          71 30 171 30 hstemhm
          17 96 -8 51 136 48 1 94 hintmask 1011111011000000
          435 60 rmoveto
          -104 callsubr
          hintmask 0111111011000000
          -36 callgsubr
          hintmask 1011111011000000
          -92 callsubr
          19 732 -37 callgsubr
          hvcurveto
          hintmask 1011110111000000
          -86 callsubr
        </CharString>
        <CharString name="asciicircum">
          -57 452 -21 319 -20 hstem
          112 431 rmoveto
          168 266 169 -266 rlineto
          72 hlineto
          -208 319 rlineto
          -63 hlineto
          -207 -319 rlineto
          endchar
        </CharString>
        <CharString name="asciitilde">
          -57 308 63 9 62 hstem
          114 315 rmoveto
          18 20 rlineto
          34 29 8 11 26 24 88 -72 32 hhcurveto
          45 29 26 63 44 hvcurveto
          19 24 -28 12 rlineto
          -44 -35 -20 -18 -25 -25 -84 71 -32 hhcurveto
          -54 -33 -36 -79 -53 hvcurveto
          endchar
        </CharString>
        <CharString name="asterisk">
          -133 437 -21 379 -20 hstem
          282 795 rmoveto
          -80 hlineto
          22 -172 -155 74 -25 -76 169 -33 -119 -125 66 -47 82 152 83 -152 65 47 -118 125 170 33 -25 76 -157 -74 rlineto
          endchar
        </CharString>
        <CharString name="at">
          308 -15 37 150 37 340 35 147 36 hstem
          62 70 135 74 205 42 206 69 vstem
          479 549 rmoveto
          45 22 -33 -49 -133 -68 -125 -76 -33 -28 35 55 93 53 157 85 hvcurveto
          164 25 rmoveto
          -77 hlineto
          -8 -39 rlineto
          33 -24 -29 16 -35 hhcurveto
          -120 -83 -137 -128 -93 51 -54 67 49 43 20 67 39 hvcurveto
          -59 7 43 -31 61 hhcurveto
          126 110 117 162 190 -146 129 -212 -261 -182 -190 -241 -216 157 -135 196 38 43 5 10 48 hvcurveto
          38 vlineto
          -11 -48 -40 -5 -32 hhcurveto
          -168 -124 111 191 232 151 175 222 168 121 -99 -163 -116 -48 -149 -101 -39 -18 28 35 14 4 27 8 40 hvcurveto
          endchar
        </CharString>
        <CharString name="atilde">
          -65 callgsubr
          125 68 -4 68 6 callsubr
          hintmask 10111011
          458 60 rmoveto
          -104 callsubr
          hintmask 01111011
          -36 callgsubr
          hintmask 10110111
          -92 callsubr
          -137 591 -59 callsubr
          hintmask 10111011
          -95 callsubr
          hintmask 10110111
          -90 callsubr
        </CharString>
        <CharString name="b">
          34 -10 45 -14 -21 450 45 255 -20 hstemhm
          40 178 -95 95 274 101 hintmask 10111010
          40 -33 callsubr
          hintmask 10110110
          83 -15 rlineto
          -639 vlineto
          hintmask 01111010
          -83 -23 rlineto
          -37 172 118 vlineto
          hintmask 10111010
          -83 27 63 -45 81 hhcurveto
          123 87 89 162 165 -88 89 -121 -72 -65 -38 -85 -29 hvcurveto
          378 -178 vlineto
          330 -300 rmoveto
          80 42 -67 -145 -133 -38 -70 -84 -94 -58 87 119 132 68 77 84 hvcurveto
          endchar
        </CharString>
        <CharString name="backslash">
          -212 -299 -21 1122 -20 hstem
          49 802 rmoveto
          -54 hlineto
          446 -1122 rlineto
          53 hlineto
          endchar
        </CharString>
        <CharString name="bar">
          -50 -167 -21 938 -20 hstem
          250 69 vstem
          250 750 rmoveto
          -938 69 938 vlineto
          endchar
        </CharString>
        <CharString name="braceleft">
          15 callsubr
          142 98 -98 221 hintmask 11110000
          139 241 rmoveto
          53 13 45 32 3 85 rrcurveto
          278 vlineto
          hintmask 11101000
          85 30 25 93 5 vhcurveto
          36 -71 vlineto
          -107 -40 -33 -153 -3 hvcurveto
          -247 vlineto
          -70 -37 -36 -75 -3 vhcurveto
          -34 vlineto
          76 -3 36 -38 -68 vvcurveto
          -249 vlineto
          -153 5 38 -33 107 hhcurveto
          71 38 hlineto
          hintmask 11110000
          -87 3 -36 26 85 vvcurveto
          278 vlineto
          -3 86 -40 26 -58 19 rrcurveto
          endchar
        </CharString>
        <CharString name="braceright">
          15 callsubr
          10 219 -96 96 hintmask 11101000
          234 241 rmoveto
          -59 -16 -42 -34 -81 vvcurveto
          -278 vlineto
          hintmask 11110000
          -5 -86 -26 -25 -92 -3 rrcurveto
          -38 71 vlineto
          106 39 33 153 3 hvcurveto
          249 vlineto
          67 38 37 76 5 vhcurveto
          34 vlineto
          -76 2 -38 36 71 vvcurveto
          247 vlineto
          160 -50 26 -98 vhcurveto
          -71 -36 hlineto
          hintmask 11101000
          91 -4 32 -30 -81 vvcurveto
          -278 vlineto
          -80 37 -35 64 -15 vhcurveto
          endchar
        </CharString>
        <CharString name="bracketleft">
          -243 -314 36 1036 37 hstemhm
          108 99 -99 220 hintmask 11100000
          207 758 rmoveto
          hintmask 11010000
          121 37 -220 -1109 220 36 hlineto
          hintmask 11100000
          -121 hlineto
          endchar
        </CharString>
        <CharString name="bracketright">
          -243 -314 36 1036 37 hstemhm
          48 221 -99 99 hintmask 11010000
          170 -278 rmoveto
          hintmask 11100000
          -122 -36 221 1109 -221 -37 hlineto
          hintmask 11010000
          122 hlineto
          endchar
        </CharString>
        <CharString name="breve">
          -57 594 -56 callgsubr
          111 0 callsubr
          hintmask 01110000
          420 750 rmoveto
          hintmask 10110000
          -56 callsubr
          hintmask 01110000
          -97 callsubr
          endchar
        </CharString>
        <CharString name="brokenbar">
          -57 -167 -21 938 -20 hstem
          246 69 vstem
          246 172 rmoveto
          -360 69 360 vlineto
          -69 578 rmoveto
          -372 69 372 vlineto
          endchar
        </CharString>
        <CharString name="bullet">
          131 246 -21 313 -20 hstem
          378 538 rmoveto
          -88 -70 -70 -88 -84 71 -71 85 85 71 71 85 85 -71 72 -83 hvcurveto
          endchar
        </CharString>
        <CharString name="c">
          -12 callsubr
          hstem
          50 103 vstem
          460 -101 callsubr
          endchar
        </CharString>
        <CharString name="cacute">
          -12 callsubr
          255 -20 hstem
          50 103 vstem
          460 -101 callsubr
          -281 566 rmoveto
          -102 callsubr
        </CharString>
        <CharString name="caron">
          -57 608 -21 163 -20 hstem
          266 587 -96 callsubr
        </CharString>
        <CharString name="ccaron">
          -12 callsubr
          255 -20 hstem
          50 103 vstem
          460 -101 callsubr
          -186 549 -96 callsubr
        </CharString>
        <CharString name="ccedilla">
          -104 -215 -21 193 33 0 38 430 37 hstemhm
          47 103 115 124 -66 66 hintmask 10111100
          457 156 -17 callsubr
          -35 -114 rlineto
          -9 -19 -35 -5 -27 hhcurveto
          -95 -59 63 148 145 55 74 92 28 40 -6 -15 20 hvcurveto
          33 -109 rlineto
          37 124 hlineto
          27 -30 -65 16 -59 hhcurveto
          -143 -111 -93 -163 -149 94 -87 124 -11 hvcurveto
          -64 vlineto
          hintmask 11011010
          -78 callsubr
          50 -40 22 -42 3 vhcurveto
          33 vlineto
          56 3 62 14 32 31 rrcurveto
          endchar
        </CharString>
        <CharString name="ccircumflex">
          -12 callsubr
          0 91 -18 callgsubr
          50 103 hintmask 11011000
          460 -101 callsubr
          -162 712 rmoveto
          -34 hlineto
          hintmask 10111000
          -102 callgsubr
        </CharString>
        <CharString name="cdotaccent">
          -12 callsubr
          107 10 callsubr
          50 103 83 130 vstem
          460 -101 callsubr
          -159 680 rmoveto
          -107 callgsubr
          endchar
        </CharString>
        <CharString name="cedilla">
          -387 -215 -21 236 -20 hstemhm
          81 124 -66 66 hintmask 11100000
          123 hmoveto
          -42 -72 hlineto
          hintmask 11010000
          -78 callsubr
          50 -40 22 -42 3 vhcurveto
          endchar
        </CharString>
        <CharString name="cent">
          -114 -108 -21 736 -20 hstemhm
          47 103 123 42 -42 182 hintmask 11110000
          273 -129 rmoveto
          42 120 hlineto
          55 3 56 15 31 29 rrcurveto
          118 -37 vlineto
          -35 -114 -17 -8 -29 -5 -24 -1 rlinecurve
          429 vlineto
          25 -3 29 -6 16 -11 33 -109 rcurveline
          hintmask 11101000
          37 124 hlineto
          hintmask 11110000
          -27 27 -58 13 -55 3 rrcurveto
          112 -42 -113 vlineto
          -129 -13 -97 -89 -153 vvcurveto
          -152 97 -88 129 -8 vhcurveto
          -123 248 rmoveto
          132 46 73 77 12 vhcurveto
          -426 vlineto
          -77 13 -46 64 132 vvcurveto
          endchar
        </CharString>
        <CharString name="circumflex">
          -57 607 -21 164 -20 hstem
          294 750 rmoveto
          -34 hlineto
          -102 callgsubr
        </CharString>
        <CharString name="colon">
          -370 -11 130 241 132 22 callsubr
          492 rmoveto
          -43 -24 -34 -32 -37 28 -25 callgsubr
          -30 27 -35 hvcurveto
          -373 vmoveto
          -41 -26 -29 -35 -37 28 -45 callgsubr
          endchar
        </CharString>
        <CharString name="comma">
          -361 -119 -6 callgsubr
          -2 callgsubr
          endchar
        </CharString>
        <CharString name="copyright">
          278 -11 43 120 31 391 31 114 43 hstem
          57 52 118 90 462 51 vstem
          596 298 rmoveto
          -32 hlineto
          -33 -101 rlineto
          -9 -17 -33 -5 -24 hhcurveto
          -87 -53 57 135 133 50 66 83 25 38 -9 -12 19 hvcurveto
          30 -96 rlineto
          32 108 hlineto
          25 -27 -61 15 -52 hhcurveto
          -128 -99 -83 -147 -145 97 -78 125 53 62 15 29 32 hvcurveto
          -155 523 rmoveto
          180 4 callsubr
          -183 3 callgsubr
          7 -14 callgsubr
          211 18 callgsubr
          -207 hvcurveto
          endchar
        </CharString>
        <CharString name="currency">
          102 114 -21 36 67 395 65 35 -20 hstem
          97 67 393 67 vstem
          358 591 rmoveto
          107 92 -86 -112 -112 -91 -85 -106 -104 -92 85 112 111 93 87 101 hvcurveto
          -293 -450 rmoveto
          43 -44 90 91 rlineto
          -39 52 55 -20 57 hhcurveto
          59 54 20 39 49 hvcurveto
          95 -95 42 44 -94 94 rlineto
          38 50 19 54 58 vvcurveto
          56 -19 54 -38 52 vhcurveto
          90 90 -43 42 -91 -90 rlineto
          39 -50 -54 20 -58 hhcurveto
          -59 -54 -19 -40 -51 hvcurveto
          -95 94 -42 -43 94 -93 rlineto
          -38 -52 -19 -54 -56 vvcurveto
          -59 19 -54 38 -49 vhcurveto
          endchar
        </CharString>
        <CharString name="d">
          5 21 callgsubr
          257 -20 hstemhm
          60 101 275 93 hintmask 10111100
          361 -33 callsubr
          75 -15 rlineto
          -322 -54 callgsubr
          hintmask 01111100
          0 callgsubr
          692 -26 callgsubr
          hvcurveto
          hintmask 10111100
          -33 callgsubr
          vhcurveto
          endchar
        </CharString>
        <CharString name="dagger">
          -180 -247 -21 706 -3 callsubr
          -706 69 706 12 callgsubr
        </CharString>
        <CharString name="daggerdbl">
          -180 -247 -21 268 46 392 -3 callsubr
          -392 -137 -46 137 -268 69 268 149 46 -149 392 12 callgsubr
        </CharString>
        <CharString name="dcaron">
          137 21 callgsubr
          257 1 callgsubr
          60 101 275 93 hintmask 10101110
          638 571 -95 callgsubr
          -231 143 rmoveto
          75 -15 rlineto
          -322 -54 callgsubr
          hintmask 01110110
          0 callgsubr
          692 -26 callgsubr
          hvcurveto
          hintmask 10101110
          -33 callgsubr
          vhcurveto
          endchar
        </CharString>
        <CharString name="dcroat">
          5 21 callgsubr
          71 42 -42 186 hstemhm
          60 101 275 93 -93 185 hintmask 10110110
          361 -33 callsubr
          75 -15 rlineto
          -93 -140 -42 140 -187 -54 callgsubr
          hintmask 01110110
          0 callgsubr
          506 vlineto
          hintmask 10110101
          92 42 hlineto
          hintmask 10110110
          -92 hlineto
          hintmask 10101110
          144 -26 callgsubr
          -33 callgsubr
          hvcurveto
          endchar
        </CharString>
        <CharString name="degree">
          -169 427 66 215 64 hstem
          56 63 209 66 vstem
          224 708 rmoveto
          59 45 -48 -60 -60 -40 -47 -63 -57 -49 48 59 59 49 49 56 hvcurveto
          4 64 rmoveto
          -91 -81 -75 -96 -99 76 -75 92 93 77 74 99 97 -74 75 -92 hvcurveto
          endchar
        </CharString>
        <CharString name="dieresis">
          -57 640 10 callsubr
          103 6 callgsubr
          168 756 rmoveto
          -105 callsubr
        </CharString>
        <CharString name="divide">
          -1 1 140 128 62 120 138 hstem
          237 139 vstem
          11 331 rmoveto
          -62 592 62 vlineto
          -295 258 rmoveto
          -41 -30 -31 -37 -41 32 -29 37 40 30 31 39 39 -33 29 -35 hvcurveto
          -448 vmoveto
          -43 -28 -34 -35 -43 33 -28 36 35 35 30 40 40 -33 30 -35 hvcurveto
          endchar
        </CharString>
        <CharString name="dollar">
          28 -64 -21 802 42 83 -20 hstemhm
          57 99 128 41 -41 239 -55 101 hintmask 11111010
          284 -85 rmoveto
          41 78 hlineto
          111 8 133 64 131 vvcurveto
          115 -102 67 -101 40 vhcurveto
          -41 19 rlineto
          280 vlineto
          33 -3 37 -10 31 -16 46 -152 rcurveline
          hintmask 11110100
          51 146 hlineto
          hintmask 11111010
          -53 51 -81 20 -64 5 rrcurveto
          84 -41 -83 vlineto
          -156 -5 -71 -101 -94 vvcurveto
          -106 90 -59 91 -37 vhcurveto
          15 -7 15 -8 16 -7 rrcurveto
          -305 vlineto
          -43 1 -47 15 -31 20 -43 162 rcurveline
          -58 -165 hlineto
          21 -13 22 -12 23 -10 40 -19 55 -15 61 -3 rrcurveto
          184 160 rmoveto
          -5 -81 -77 -30 -61 -8 rrcurveto
          285 vlineto
          73 -35 67 -43 3 -88 rrcurveto
          -312 452 rmoveto
          68 60 41 68 5 vhcurveto
          -262 vlineto
          -64 32 -64 41 75 vvcurveto
          endchar
        </CharString>
        <CharString name="dotaccent">
          -55 640 10 callsubr
          220 130 vstem
          285 756 rmoveto
          -107 callgsubr
          endchar
        </CharString>
        <CharString name="dotlessi">
          -297 21 -21 485 -20 -11 callgsubr
          -94 94 hintmask 11010000
          -91 callgsubr
          endchar
        </CharString>
        <CharString name="e">
          -65 callsubr
          hstem
          51 100 252 80 vstem
          483 -107 callsubr
          endchar
        </CharString>
        <CharString name="eacute">
          -65 callsubr
          256 -20 hstem
          51 100 252 80 vstem
          483 -107 callsubr
          -107 149 rmoveto
          -102 callsubr
        </CharString>
        <CharString name="ebreve">
          -65 callsubr
          100 -56 callgsubr
          51 100 -38 38 252 80 -61 30 hintmask 1110110100000000
          483 -107 callsubr
          hintmask 1110110010000000
          135 295 rmoveto
          hintmask 1111010100000000
          -56 callsubr
          hintmask 1110101010000000
          -97 callsubr
          endchar
        </CharString>
        <CharString name="ecaron">
          -65 callsubr
          256 -20 hstem
          51 100 252 80 vstem
          483 -107 callsubr
          -16 132 -96 callsubr
        </CharString>
        <CharString name="ecircumflex">
          -68 -10 38 0 239 33 155 0 39 0 92 -18 callgsubr
          51 100 252 80 hintmask 01010111
          483 169 -17 callsubr
          -37 -106 rlineto
          -3 -45 -32 -69 -122 -22 98 141 vhcurveto
          339 hlineto
          73 -16 154 -185 -143 -95 -92 -164 vhcurveto
          hintmask 10101111
          -148 76 -100 168 85 68 25 40 35 vhcurveto
          -196 400 rmoveto
          69 47 -44 -111 hvcurveto
          -250 hlineto
          2 29 6 25 10 23 rrcurveto
          40 16 36 38 64 hhcurveto
          8 295 rmoveto
          -34 hlineto
          -102 callgsubr
        </CharString>
        <CharString name="edieresis">
          -65 callsubr
          146 3 callsubr
          51 100 -34 -44 callsubr
          -67 80 hintmask 11111001
          483 -107 callsubr
          -105 301 rmoveto
          hintmask 11110110
          -105 callsubr
        </CharString>
        <CharString name="edotaccent">
          -65 callsubr
          124 10 callsubr
          51 100 72 130 50 80 vstem
          483 -107 callsubr
          1 279 rmoveto
          -107 callgsubr
          endchar
        </CharString>
        <CharString name="egrave">
          -65 callsubr
          256 -20 hstem
          51 100 252 80 vstem
          483 -107 callsubr
          121 150 rmoveto
          -93 callsubr
        </CharString>
        <CharString name="eight">
          10 -14 37 347 39 317 35 hstemhm
          60 112 -90 103 271 94 -94 113 hintmask 11110100
          322 370 rmoveto
          90 44 -85 -86 -117 -72 -59 -72 -70 -70 58 114 87 48 88 93 hvcurveto
          1 39 rmoveto
          hintmask 11101100
          -87 -42 78 79 107 64 53 68 65 65 -51 -104 -81 -45 -81 -88 hvcurveto
          76 -18 rmoveto
          111 26 49 73 74 vvcurveto
          131 -119 66 -115 -117 -117 -67 -128 -75 50 -73 109 -27 vhcurveto
          hintmask 11110010
          -124 -32 -57 -84 -84 vvcurveto
          -136 128 -69 128 128 125 69 136 84 -57 84 -122 32 vhcurveto
          endchar
        </CharString>
        <CharString name="ellipsis">
          128 -11 130 hstem
          57 132 117 132 118 130 vstem
          622 119 rmoveto
          -43 -23 -29 -35 -39 26 -27 -24 callgsubr
          -28 25 -36 hvcurveto
          -249 hmoveto
          -43 -24 -31 -33 -37 27 -29 39 39 27 27 39 39 -29 25 -36 hvcurveto
          -249 hmoveto
          -41 -26 -29 -35 -37 28 -45 callgsubr
          endchar
        </CharString>
        <CharString name="emacron">
          -65 callsubr
          120 74 hstem
          51 100 252 80 vstem
          483 -107 callsubr
          -146 233 -54 callsubr
        </CharString>
        <CharString name="emdash">
          239 -29 callsubr
          748 68 vlineto
          endchar
        </CharString>
        <CharString name="endash">
          47 -29 callsubr
          555 68 vlineto
          endchar
        </CharString>
        <CharString name="eogonek">
          -68 -230 32 188 38 239 33 155 39 hstem
          77 100 58 71 123 80 vstem
          397 -198 rmoveto
          -64 1 -27 42 47 vvcurveto
          39 20 41 35 20 vhcurveto
          67 7 50 21 31 35 rrcurveto
          19 callsubr
          -122 -22 98 141 vhcurveto
          339 hlineto
          73 -16 154 -185 -143 -95 -92 -164 -147 74 -98 163 -3 vhcurveto
          -52 -19 -27 -38 -43 vvcurveto
          -59 56 -61 112 vhcurveto
          -90 685 rmoveto
          69 47 -44 -111 hvcurveto
          -250 hlineto
          2 29 6 25 10 23 rrcurveto
          40 16 36 38 64 hhcurveto
          endchar
        </CharString>
        <CharString name="equal">
          -8 263 68 91 67 hstem
          44 331 rmoveto
          -68 524 68 vlineto
          -524 158 rmoveto
          -67 524 67 vlineto
          endchar
        </CharString>
        <CharString name="eth">
          -9 41 419 42 276 -20 hstem
          47 100 286 107 vstem
          265 683 rmoveto
          -167 76 -25 -38 147 -70 -117 -84 33 -33 132 95 rlineto
          98 -45 66 -45 -81 vvcurveto
          -10 vlineto
          27 -43 -46 18 -59 hhcurveto
          -135 -102 -83 -162 -157 91 -100 153 188 61 147 156 209 -101 94 -127 64 hvcurveto
          105 75 -33 33 rlineto
          -92 -737 rmoveto
          -96 -49 66 149 139 38 65 107 93 48 -57 -149 -148 -46 -65 -95 hvcurveto
          endchar
        </CharString>
        <CharString name="exclam">
          -278 -11 130 631 -20 24 callgsubr
          119 rmoveto
          hintmask 11100000
          -41 -25 -29 -35 -37 27 -45 callgsubr
          20 64 rmoveto
          37 567 rlineto
          -114 hlineto
          36 -567 rlineto
          endchar
        </CharString>
        <CharString name="exclamdown">
          -276 21 -21 631 130 24 callgsubr
          631 rmoveto
          hintmask 11100000
          36 29 25 39 39 -26 27 -39 -39 -27 -29 -37 -35 25 -29 41 hvcurveto
          -21 -64 rmoveto
          -36 -567 rlineto
          114 hlineto
          -37 567 rlineto
          endchar
        </CharString>
        <CharString name="f">
          -244 21 -21 445 41 211 48 hstemhm
          131 72 -72 95 -95 244 hintmask 11100100
          375 600 rmoveto
          128 vlineto
          11 -40 -34 6 -28 hhcurveto
          -106 -36 -79 -180 hvcurveto
          -91 -41 91 -386 hlineto
          -69 -10 callgsubr
          240 37 vlineto
          hintmask 11101000
          -76 22 rlineto
          386 118 41 -120 vlineto
          hintmask 11110000
          -15 25 -6 34 33 vvcurveto
          64 22 55 48 11 13 -4 -7 13 vhcurveto
          23 -86 rlineto
          endchar
        </CharString>
        <CharString name="five">
          -11 43 399 64 171 84 hstem
          419 103 vstem
          148 666 rmoveto
          317 84 -352 hlineto
          -48 -422 rlineto
          62 hlineto
          72 35 49 31 51 hhcurveto
          80 77 -80 -121 -113 -68 -85 -89 -35 -38 9 28 -36 hvcurveto
          -42 136 rlineto
          -51 -139 hlineto
          -49 40 80 -28 84 hhcurveto
          191 67 132 126 141 -101 107 -117 -61 -83 -25 -101 -45 hvcurveto
          endchar
        </CharString>
        <CharString name="four">
          2 21 -21 196 71 495 -20 hstem
          369 100 vstem
          273 hmoveto
          -18 callsubr
          -108 24 rlineto
          135 112 71 -112 495 -74 vlineto
          -370 -495 rlineto
          -71 344 -137 vlineto
          -96 -22 rlineto
          96 230 rmoveto
          -295 hlineto
          295 393 rlineto
          endchar
        </CharString>
        <CharString name="g">
          -34 callsubr
          16 callgsubr
          hintmask 1111010001000000
          -78 callgsubr
          hintmask 1111001010000000
          -73 callgsubr
          hintmask 1110101010000000
          -70 callgsubr
          hintmask 1111000110000000
          -50 callsubr
          hintmask 1111010001000000
          -94 callgsubr
          hintmask 1111010010000000
          -60 callgsubr
          endchar
        </CharString>
        <CharString name="gbreve">
          -34 callsubr
          98 -56 callgsubr
          25 65 -30 92 -76 76 -57 32 249 58 -58 93 -65 30 23 56 hintmask 1111010100110010
          -78 callgsubr
          80 34 -44 -108 -100 -37 -46 -76 hvcurveto
          hintmask 1111010010010010
          -75 -36 46 103 100 38 49 72 hvcurveto
          267 27 rmoveto
          -170 hlineto
          hintmask 1110110010010010
          -70 callgsubr
          hintmask 1111010001010010
          -50 callsubr
          hintmask 1111010100110010
          -94 callgsubr
          hintmask 1111001100101000
          -60 callgsubr
          hintmask 1111001100100110
          -125 302 rmoveto
          hintmask 1111010100110010
          -56 callsubr
          hintmask 1111001100110010
          -97 callsubr
          endchar
        </CharString>
        <CharString name="gcircumflex">
          -1 callgsubr
          90 164 -20 16 callgsubr
          hintmask 1101111100010000
          138 -57 -92 callgsubr
          -249 302 rmoveto
          -34 hlineto
          -102 callgsubr
        </CharString>
        <CharString name="gdotaccent">
          -34 callsubr
          144 3 callsubr
          25 65 -30 92 -92 141 -125 76 224 93 -12 56 hintmask 1111011000010000
          -78 callgsubr
          hintmask 1111010100100000
          -73 callgsubr
          hintmask 1110110010100000
          -70 callgsubr
          hintmask 1111010001100000
          -50 callsubr
          hintmask 1111011000010000
          -94 callgsubr
          hintmask 1111010010100000
          -60 callgsubr
          -393 308 rmoveto
          -107 callgsubr
          endchar
        </CharString>
        <CharString name="germandbls">
          31 -9 35 -5 -21 726 36 hstemhm
          130 93 83 82 87 76 6 79 hintmask 01111110
          -15 callgsubr
          553 vlineto
          116 33 57 95 81 43 -58 -61 -43 -22 -43 -45 -27 vhcurveto
          -27 -17 rlineto
          -47 -29 -28 -36 -36 vvcurveto
          -43 38 -44 56 -29 vhcurveto
          70 -37 rlineto
          56 -31 31 -48 -41 vvcurveto
          hintmask 10111110
          -46 -50 -31 -52 -27 -25 8 17 -21 vhcurveto
          -41 127 rlineto
          -41 -134 hlineto
          -37 37 63 -16 51 hhcurveto
          99 86 64 93 53 -30 55 -72 33 hvcurveto
          -82 44 rlineto
          -37 20 -27 26 28 vvcurveto
          25 23 24 32 23 vhcurveto
          30 20 rlineto
          55 37 23 42 43 vvcurveto
          75 -77 66 -119 -133 -92 -71 -168 vhcurveto
          -464 vlineto
          -77 -22 rlineto
          hintmask 01111110
          -37 vlineto
          endchar
        </CharString>
        <CharString name="grave">
          -233 626 -21 145 -20 hstem
          361 605 rmoveto
          -93 callsubr
        </CharString>
        <CharString name="greater">
          -57 150 -21 483 -20 hstem
          38 129 rmoveto
          487 219 rlineto
          46 vlineto
          -487 218 rlineto
          -72 vlineto
          389 -170 -389 -170 rlineto
          endchar
        </CharString>
        <CharString name="greaterequal">
          -1 0 62 657 -20 hstem
          33 719 rmoveto
          -70 vlineto
          470 -224 -470 -224 rlineto
          -69 vlineto
          559 262 rlineto
          62 vlineto
          -394 vmoveto
          -559 -62 559 hlineto
          endchar
        </CharString>
        <CharString name="guillemotleft">
          -116 -31 callgsubr
          347 -190 rmoveto
          45 hlineto
          -96 190 96 190 rlineto
          -45 hlineto
          -156 -190 rlineto
          endchar
        </CharString>
        <CharString name="guillemotright">
          -116 83 -21 380 -20 hstem
          291 442 rmoveto
          -44 hlineto
          96 -30 callsubr
          -347 190 rmoveto
          -45 hlineto
          97 -30 callsubr
          endchar
        </CharString>
        <CharString name="guilsinglleft">
          -307 -31 callgsubr
          endchar
        </CharString>
        <CharString name="guilsinglright">
          -307 83 -21 380 -20 hstem
          100 442 rmoveto
          -45 hlineto
          97 -30 callsubr
          endchar
        </CharString>
        <CharString name="h">
          11 21 -21 445 48 257 -20 -28 callsubr
          hintmask 11101100
          46 -33 callsubr
          67 -12 rlineto
          -643 vlineto
          hintmask 11110100
          -83 callsubr
          387 -5 callsubr
          endchar
        </CharString>
        <CharString name="hbar">
          11 21 -21 445 48 71 42 -42 186 -28 callsubr
          hintmask 11100110
          46 -33 callsubr
          67 -12 rlineto
          -96 -93 -42 93 -505 vlineto
          hintmask 11101010
          -83 callsubr
          201 137 42 -137 vlineto
          hintmask 11011010
          144 -5 callsubr
          endchar
        </CharString>
        <CharString name="hcircumflex">
          11 21 -21 445 48 257 -20 -28 callsubr
          hintmask 11101100
          46 -33 callsubr
          67 -12 rlineto
          -643 vlineto
          hintmask 11110100
          -83 callsubr
          387 -5 callsubr
          363 hmoveto
          -34 hlineto
          -102 callgsubr
        </CharString>
        <CharString name="hungarumlaut">
          -57 573 176 hstem
          368 573 -87 callsubr
        </CharString>
        <CharString name="hyphen">
          -255 -29 callsubr
          253 68 vlineto
          endchar
        </CharString>
        <CharString name="i">
          -297 21 -21 640 116 -11 callgsubr
          -129 129 -94 94 hintmask 11001000
          -91 callgsubr
          98 271 rmoveto
          hintmask 11010000
          -107 callgsubr
          endchar
        </CharString>
        <CharString name="iacute">
          -297 -82 callgsubr
          -11 callgsubr
          -94 94 hintmask 11010000
          -91 callgsubr
          10 119 rmoveto
          -102 callsubr
        </CharString>
        <CharString name="ibreve">
          -297 21 -21 594 -56 callgsubr
          -8 32 21 167 -94 94 89 30 hintmask 11010110
          -70 callsubr
          hintmask 10111010
          -73 -10 callgsubr
          237 -7 callsubr
          428 -5 callsubr
          251 265 rmoveto
          hintmask 11011010
          -56 callsubr
          hintmask 10111010
          -97 callsubr
          endchar
        </CharString>
        <CharString name="icircumflex">
          -297 -82 callgsubr
          -11 callgsubr
          -94 94 hintmask 11010000
          -91 callgsubr
          124 265 rmoveto
          -34 hlineto
          -102 callgsubr
        </CharString>
        <CharString name="idieresis">
          -297 21 -21 600 114 hstemhm
          -15 14 callgsubr
          50 -79 callsubr
        </CharString>
        <CharString name="igrave">
          -297 -82 callgsubr
          -11 callgsubr
          -94 94 hintmask 11010000
          -91 callgsubr
          244 120 rmoveto
          -93 callsubr
        </CharString>
        <CharString name="imacron">
          -297 21 -21 616 74 -11 callgsubr
          -167 244 -171 94 hintmask 11001000
          -91 callgsubr
          -50 205 rmoveto
          -74 vlineto
          hintmask 11010000
          289 74 hlineto
          endchar
        </CharString>
        <CharString name="iogonek">
          -297 -227 32 216 -21 640 116 -11 callgsubr
          -135 71 -30 94 hintmask 11101000
          239 -61 callsubr
          68 37 hlineto
          hintmask 11110000
          -70 20 rlineto
          428 -162 -36 vlineto
          hintmask 11100100
          68 -12 rlineto
          -378 vlineto
          hintmask 11110000
          -73 -10 callgsubr
          140 vlineto
          hintmask 11101000
          -51 callsubr
          -97 983 rmoveto
          -107 callgsubr
          endchar
        </CharString>
        <CharString name="itilde">
          -297 21 -21 618 68 -4 68 -11 callgsubr
          -94 94 hintmask 11001000
          -70 callsubr
          hintmask 10110000
          -73 -10 callgsubr
          237 -7 callsubr
          428 -5 callsubr
          -57 139 -59 callsubr
          hintmask 11010000
          -95 callsubr
          hintmask 10110000
          -90 callsubr
        </CharString>
        <CharString name="j">
          -79 callgsubr
        </CharString>
        <CharString name="jcircumflex">
          -378 -301 -21 1072 -20 hstem
          89 95 vstem
          22 449 rmoveto
          67 -12 rlineto
          -452 vlineto
          -144 -1 -48 -72 -86 vhcurveto
          -6 -7 29 -22 rlineto
          122 134 23 31 195 vvcurveto
          447 -5 callsubr
          111 265 rmoveto
          -34 hlineto
          -102 callgsubr
        </CharString>
        <CharString name="k">
          27 -82 callgsubr
          hstemhm
          60 178 -95 95 hintmask 11100000
          60 -33 callsubr
          hintmask 11010000
          83 -14 rlineto
          -640 vlineto
          hintmask 11100000
          -62 callsubr
        </CharString>
        <CharString name="l">
          -275 -82 callgsubr
          hstemhm
          60 173 -95 95 hintmask 11010000
          -30 callgsubr
          hintmask 11100000
          -66 callsubr
          endchar
        </CharString>
        <CharString name="lacute">
          -275 -82 callgsubr
          216 -43 callgsubr
          15 50 rmoveto
          -102 callsubr
        </CharString>
        <CharString name="lcaron">
          -134 -82 callgsubr
          21 -20 hstemhm
          60 173 -95 95 hintmask 10101000
          332 571 -95 callgsubr
          -220 143 rmoveto
          72 -12 rlineto
          -644 vlineto
          hintmask 11010000
          -66 callsubr
          endchar
        </CharString>
        <CharString name="ldot">
          -203 21 -21 252 131 367 -20 hstemhm
          60 173 -95 95 45 132 hintmask 11101100
          -30 callgsubr
          hintmask 11110100
          -66 callsubr
          279 -367 -42 callgsubr
        </CharString>
        <CharString name="less">
          -57 150 -21 483 -20 hstem
          524 612 rmoveto
          -487 -218 rlineto
          -46 vlineto
          487 -219 rlineto
          71 vlineto
          -389 170 389 170 rlineto
          endchar
        </CharString>
        <CharString name="lessequal">
          -1 0 62 657 -20 hstem
          592 719 rmoveto
          -559 -263 rlineto
          -62 vlineto
          559 -262 rlineto
          69 vlineto
          -472 224 472 224 rlineto
          -587 vmoveto
          -559 -62 559 hlineto
          endchar
        </CharString>
        <CharString name="logicalnot">
          -57 21 -21 237 67 hstem
          457 67 vstem
          457 hmoveto
          67 304 -487 -67 420 hlineto
          endchar
        </CharString>
        <CharString name="lozenge">
          -63 21 -21 832 -20 hstem
          270 65 rmoveto
          -179 358 186 345 175 -347 rlineto
          -218 -421 rmoveto
          69 hlineto
          221 421 -212 411 rlineto
          -71 hlineto
          -221 -409 rlineto
          endchar
        </CharString>
        <CharString name="lslash">
          -355 -82 callgsubr
          hstemhm
          74 173 -95 95 hintmask 11010000
          11 163 rmoveto
          33 -32 108 108 rlineto
          -181 vlineto
          hintmask 11100000
          -78 -21 -47 callgsubr
          -81 22 rlineto
          275 vlineto
          137 138 -32 32 -105 -105 rlineto
          351 -167 -36 vlineto
          hintmask 11010000
          72 -12 rlineto
          -398 vlineto
          endchar
        </CharString>
        <CharString name="m">
          391 21 -21 445 48 hstemhm
          55 174 -95 95 230 95 230 94 hintmask 11011100
          58 449 rmoveto
          76 -13 rlineto
          -378 vlineto
          hintmask 11101100
          -79 -37 callsubr
          252 37 vlineto
          -78 22 rlineto
          134 vlineto
          117 29 135 114 67 20 -47 -113 vhcurveto
          -227 vlineto
          -74 -21 -47 callgsubr
          -85 21 rlineto
          124 vlineto
          175 47 87 95 54 34 -27 -116 vhcurveto
          -242 vlineto
          -72 -10 callgsubr
          250 37 vlineto
          -84 20 rlineto
          269 vlineto
          111 -60 56 -96 -83 -57 -42 -84 -30 vhcurveto
          93 -21 -51 33 -79 hhcurveto
          -96 -56 -50 -88 -29 hvcurveto
          130 -5 callsubr
          endchar
        </CharString>
        <CharString name="macron">
          -57 676 74 hstem
          136 750 -54 callsubr
        </CharString>
        <CharString name="minus">
          -8 342 67 hstem
          43 409 rmoveto
          -67 525 67 vlineto
          endchar
        </CharString>
        <CharString name="multiply">
          -8 173 -21 449 -20 hstem
          128 601 rmoveto
          -47 -48 177 -177 -174 -174 49 -47 173 173 177 -176 47 47 -177 177 173 173 -47 48 -174 -174 rlineto
          endchar
        </CharString>
        <CharString name="n">
          -12 callgsubr
          -42 callsubr
          hintmask 11101000
          67 450 rmoveto
          hintmask 11011000
          74 -14 rlineto
          -378 vlineto
          hintmask 11101000
          -99 callgsubr
          endchar
        </CharString>
        <CharString name="nacute">
          -12 callgsubr
          257 -20 -42 callsubr
          hintmask 11110100
          67 450 rmoveto
          hintmask 11101100
          74 -14 rlineto
          -378 vlineto
          hintmask 11110100
          -99 callgsubr
          176 118 rmoveto
          -102 callsubr
        </CharString>
        <CharString name="napostrophe">
          -12 callgsubr
          258 -20 -42 callsubr
          hintmask 11110100
          67 450 rmoveto
          hintmask 11101100
          74 -14 rlineto
          -378 vlineto
          hintmask 11110100
          -99 callgsubr
          248 85 -67 callgsubr
        </CharString>
        <CharString name="ncaron">
          -12 callgsubr
          257 -20 -42 callsubr
          hintmask 11110100
          67 450 rmoveto
          hintmask 11101100
          74 -14 rlineto
          -378 vlineto
          hintmask 11110100
          -99 callgsubr
          261 101 -96 callsubr
        </CharString>
        <CharString name="nine">
          12 -9 41 228 61 398 44 hstem
          60 106 300 105 vstem
          466 385 rmoveto
          -221 -5 -43 -132 -128 hhcurveto
          -33 -38 10 21 -42 hvcurveto
          -41 147 rlineto
          -51 -148 hlineto
          -49 65 62 -22 60 hhcurveto
          176 123 172 246 180 -83 174 -186 -163 -79 -128 -125 -122 75 -128 144 72 70 32 93 45 hvcurveto
          -1 134 rmoveto
          -135 -71 -63 -73 -101 -54 105 101 96 49 96 104 74 72 -61 -131 vhcurveto
          endchar
        </CharString>
        <CharString name="notequal">
          -1 -7 -21 188 62 156 62 178 -20 hstem
          211 160 rmoveto
          -82 -161 52 -27 96 188 rlineto
          330 62 -300 hlineto
          80 156 rlineto
          220 62 -189 hlineto
          76 151 -53 27 -89 -178 rlineto
          -335 -62 304 hlineto
          -79 -156 rlineto
          -225 -62 hlineto
          endchar
        </CharString>
        <CharString name="ntilde">
          -12 callgsubr
          125 68 -4 68 -42 callsubr
          hintmask 11101010
          67 450 rmoveto
          hintmask 11100110
          74 -14 rlineto
          -378 vlineto
          hintmask 11011010
          -99 callgsubr
          108 138 -59 callsubr
          hintmask 11101010
          -95 callsubr
          hintmask 11011010
          -90 callsubr
        </CharString>
        <CharString name="numbersign">
          28 21 -21 277 36 141 39 257 -20 hstem
          396 454 rmoveto
          -20 -141 rlineto
          -113 hlineto
          20 141 rlineto
          156 -177 rmoveto
          132 36 -127 hlineto
          19 141 rlineto
          135 39 -129 hlineto
          35 257 rlineto
          -65 hlineto
          -39 -257 rlineto
          -111 hlineto
          36 257 rlineto
          -70 hlineto
          -37 -257 rlineto
          -142 -39 138 hlineto
          -21 -141 rlineto
          -146 -36 142 hlineto
          -38 -277 rlineto
          68 hlineto
          39 277 rlineto
          113 hlineto
          -38 -277 rlineto
          66 hlineto
          endchar
        </CharString>
        <CharString name="o">
          -35 callgsubr
          hstem
          47 101 286 100 vstem
          292 -103 callgsubr
          endchar
        </CharString>
        <CharString name="oacute">
          -35 callgsubr
          256 -20 callgsubr
          292 -103 callgsubr
          -102 110 rmoveto
          -102 callsubr
        </CharString>
        <CharString name="obreve">
          -35 callgsubr
          100 -56 callgsubr
          47 101 -27 27 286 26 -26 100 hintmask 11011001
          292 -103 callgsubr
          138 256 rmoveto
          hintmask 11101010
          -56 callsubr
          hintmask 11010110
          -97 callsubr
          endchar
        </CharString>
        <CharString name="ocircumflex">
          -35 callgsubr
          0 92 -18 callgsubr
          47 101 286 100 hintmask 11011100
          292 -103 callgsubr
          11 256 rmoveto
          -34 hlineto
          hintmask 10111100
          -102 callgsubr
        </CharString>
        <CharString name="odieresis">
          -35 callgsubr
          146 3 callsubr
          47 101 -35 -44 callsubr
          -32 100 hintmask 11110010
          292 -103 callgsubr
          -114 262 rmoveto
          hintmask 11101100
          -105 callsubr
        </CharString>
        <CharString name="oe">
          274 -9 37 -17 -21 277 33 152 42 hstemhm
          57 101 276 80 247 80 hintmask 10111110
          841 169 -17 callsubr
          -37 -106 rlineto
          -3 -50 -32 -69 -122 -12 98 141 vhcurveto
          334 hlineto
          73 -19 154 -187 -83 -43 -35 -56 -43 vhcurveto
          56 -43 -52 35 -81 hhcurveto
          -147 -93 -96 -159 -160 92 -88 147 81 52 32 53 43 hvcurveto
          hintmask 01111110
          -52 39 45 -34 92 hhcurveto
          85 73 25 40 35 hvcurveto
          -544 397 rmoveto
          102 32 -73 -129 3 hvcurveto
          -19 vlineto
          -143 -3 -43 -56 -93 hhcurveto
          -94 -43 57 150 151 43 62 96 hvcurveto
          343 3 rmoveto
          69 52 -44 -111 hvcurveto
          -245 hlineto
          79 40 76 84 vhcurveto
          endchar
        </CharString>
        <CharString name="ogonek">
          -391 -227 32 -32 230 hstemhm
          37 71 hintmask 10100000
          199 -195 rmoveto
          -64 1 -27 42 47 vvcurveto
          hintmask 01100000
          46 27 46 47 16 vhcurveto
          -96 -49 -54 -56 -59 56 -61 112 hvcurveto
          endchar
        </CharString>
        <CharString name="ograve">
          -35 callgsubr
          256 -20 callgsubr
          292 -103 callgsubr
          140 111 rmoveto
          -93 callsubr
        </CharString>
        <CharString name="ohungarumlaut">
          -35 callgsubr
          79 176 hstem
          47 101 286 100 vstem
          292 -103 callgsubr
          4 79 -87 callsubr
        </CharString>
        <CharString name="omacron">
          -35 callgsubr
          182 74 hstem
          47 101 286 100 vstem
          292 -103 callgsubr
          -146 256 -54 callsubr
        </CharString>
        <CharString name="one">
          -91 21 -21 751 -20 hstem
          221 105 vstem
          124 hmoveto
          -18 callsubr
          -102 23 rlineto
          691 -63 vlineto
          -213 -125 rlineto
          -48 vlineto
          171 102 rlineto
          -620 vlineto
          -97 -23 rlineto
          endchar
        </CharString>
        <CharString name="ordmasculine">
          -248 291 26 257 27 hstem
          28 71 173 71 vstem
          184 574 rmoveto
          68 20 -49 -80 -85 -29 -43 -59 -57 -28 42 85 87 28 43 57 hvcurveto
          5 27 rmoveto
          -103 -58 -62 -92 -99 61 -57 97 93 64 57 96 99 -63 58 -91 hvcurveto
          endchar
        </CharString>
        <CharString name="oslash">
          -70 -21 82 41 420 42 70 -86 callgsubr
          endchar
        </CharString>
        <CharString name="oslashacute">
          -70 -21 82 41 420 42 256 -86 callgsubr
          -248 362 rmoveto
          -102 callsubr
        </CharString>
        <CharString name="otilde">
          -35 callgsubr
          124 68 -4 68 hstemhm
          47 101 286 100 hintmask 11011100
          292 -103 callgsubr
          -163 130 -90 callgsubr
        </CharString>
        <CharString name="p">
          9 -83 callgsubr
        </CharString>
        <CharString name="paragraph">
          -1 -293 -21 1020 44 hstem
          278 47 123 46 vstem
          278 -314 rmoveto
          47 1020 123 -1020 46 1020 65 44 -288 hlineto
          -152 -84 -82 -121 -116 82 -85 137 hvcurveto
          24 hlineto
          endchar
        </CharString>
        <CharString name="parenleft">
          -247 -303 -21 1126 -20 hstem
          57 106 vstem
          328 -324 rmoveto
          -105 91 -60 174 299 vvcurveto
          296 53 165 112 101 vhcurveto
          -47 hlineto
          -151 -135 -73 -155 -272 vvcurveto
          -257 64 -163 160 -144 vhcurveto
          endchar
        </CharString>
        <CharString name="parenright">
          -247 -303 -21 1126 -20 hstem
          209 105 vstem
          44 802 rmoveto
          107 -99 58 -165 -298 vvcurveto
          -296 -53 -164 -112 -104 vhcurveto
          47 hlineto
          155 136 68 159 269 vvcurveto
          257 -65 163 -158 142 vhcurveto
          endchar
        </CharString>
        <CharString name="percent">
          229 -32 callsubr
          hintmask 1110111111000000
          649 350 -73 callsubr
          hintmask 1101111111000000
          -47 callsubr
        </CharString>
        <CharString name="period">
          -370 -11 130 22 callsubr
          119 rmoveto
          -41 -26 -29 -35 -37 28 -45 callgsubr
          endchar
        </CharString>
        <CharString name="periodcentered">
          -370 214 131 22 callsubr
          345 -42 callgsubr
        </CharString>
        <CharString name="perthousand">
          642 -32 callsubr
          81 77 177 76 hintmask 1110111111110000
          1062 350 rmoveto
          67 23 -57 -107 -107 -30 -53 -59 -64 -24 54 112 105 29 53 58 hvcurveto
          4 29 rmoveto
          -105 -63 -65 -123 -131 69 -65 96 93 72 60 132 128 -68 64 -94 hvcurveto
          -417 -29 -73 callsubr
          hintmask 1101111111110000
          -47 callsubr
        </CharString>
        <CharString name="plus">
          -8 120 -21 243 67 245 -20 hstem
          272 67 vstem
          43 409 rmoveto
          -67 229 -243 67 243 229 67 -229 245 -67 -245 vlineto
          endchar
        </CharString>
        <CharString name="plusminus">
          -1 0 62 352 62 269 -20 hstem
          278 62 vstem
          340 745 rmoveto
          -62 -269 -267 -62 267 -269 62 269 266 62 -266 hlineto
          -328 -414 rmoveto
          -62 590 62 vlineto
          endchar
        </CharString>
        <CharString name="q">
          -18 -294 -21 304 46 413 45 hstem
          47 100 276 93 vstem
          346 -315 rmoveto
          245 37 hlineto
          -75 22 rlineto
          748 vlineto
          -86 -128 rlineto
          86 -13 -77 43 -82 hhcurveto
          -116 -95 -90 -164 -160 86 -90 123 81 56 40 79 30 hvcurveto
          -364 vlineto
          -77 -22 rlineto
          -71 726 rmoveto
          92 56 -79 -128 -127 -63 -79 -89 -83 -41 69 138 140 45 66 83 hvcurveto
          endchar
        </CharString>
        <CharString name="question">
          -68 -11 130 607 36 hstemhm
          167 131 -90 45 132 108 hintmask 11011000
          108 543 rmoveto
          49 134 rlineto
          35 25 38 14 37 hhcurveto
          64 64 -46 -84 -48 -19 -52 -33 -36 hvcurveto
          -34 -36 rlineto
          -72 -77 -19 -38 -88 vvcurveto
          -39 45 20 vlineto
          90 16 52 82 53 vhcurveto
          31 20 rlineto
          76 48 35 66 61 vvcurveto
          115 -116 55 -115 -84 -81 -30 -57 -40 vhcurveto
          -132 vlineto
          176 -424 rmoveto
          hintmask 11101000
          -41 -25 -29 -35 -37 27 -45 callgsubr
          endchar
        </CharString>
        <CharString name="questiondown">
          -64 -10 36 607 130 hstemhm
          33 108 87 131 -86 45 hintmask 11101000
          418 209 rmoveto
          -49 -134 rlineto
          -35 -25 -38 -14 -37 hhcurveto
          -64 -64 46 84 48 19 52 33 36 hvcurveto
          34 36 rlineto
          72 77 19 38 88 vvcurveto
          39 -45 -20 vlineto
          -90 -16 -52 -82 -53 vhcurveto
          -31 -20 rlineto
          -76 -48 -35 -66 -61 vvcurveto
          -115 116 -55 115 84 81 30 57 40 vhcurveto
          132 vlineto
          -176 424 rmoveto
          hintmask 11110000
          41 25 29 35 37 -27 29 -39 -39 -26 -27 -39 -39 29 -25 36 hvcurveto
          endchar
        </CharString>
        <CharString name="quotedbl">
          -282 565 -21 251 -20 hstem
          107 544 rmoveto
          18 callsubr
          218 hmoveto
          18 callsubr
          endchar
        </CharString>
        <CharString name="quotedblbase">
          -158 -119 -6 callgsubr
          277 -140 rmoveto
          137 252 rlineto
          -128 hlineto
          -57 -252 rlineto
          -144 hmoveto
          144 252 rlineto
          -133 hlineto
          -57 -252 rlineto
          endchar
        </CharString>
        <CharString name="quotedblleft">
          -142 565 -6 callgsubr
          321 796 rmoveto
          -84 -252 rlineto
          129 252 hlineto
          -238 hmoveto
          -81 26 callgsubr
        </CharString>
        <CharString name="quotedblright">
          -142 565 -21 251 -20 hstem
          292 544 rmoveto
          82 251 -23 callgsubr
          -251 hlineto
          -146 hmoveto
          88 251 rlineto
          -134 -251 hlineto
          endchar
        </CharString>
        <CharString name="quoteleft">
          -333 564 -6 callgsubr
          126 795 rmoveto
          -79 26 callgsubr
        </CharString>
        <CharString name="quoteright">
          -333 564 -6 callgsubr
          102 543 rmoveto
          80 252 -23 callgsubr
          -252 hlineto
          endchar
        </CharString>
        <CharString name="quotesinglbase">
          -349 -119 -6 callgsubr
          85 -140 rmoveto
          138 252 -46 callgsubr
          -57 -252 rlineto
          endchar
        </CharString>
        <CharString name="quotesingle">
          -453 563 -21 253 -20 hstem
          107 542 rmoveto
          37 253 rlineto
          -122 hlineto
          38 -253 rlineto
          endchar
        </CharString>
        <CharString name="r">
          -130 21 -21 429 55 1 -7 callgsubr
          hintmask 11001000
          -31 callsubr
          hintmask 11010000
          -89 callsubr
          hintmask 10110000
          142 -166 vlineto
          endchar
        </CharString>
        <CharString name="racute">
          -130 21 -21 429 55 266 -7 callgsubr
          hintmask 11101000
          -31 callsubr
          hintmask 11110000
          -89 callsubr
          142 -166 vlineto
          83 119 rmoveto
          -102 callsubr
        </CharString>
        <CharString name="rcaron">
          -130 21 -21 429 55 266 -7 callgsubr
          hintmask 11101000
          -31 callsubr
          hintmask 11110000
          -89 callsubr
          142 -166 vlineto
          169 102 -96 callsubr
        </CharString>
        <CharString name="registered">
          278 -11 43 151 213 -27 27 159 29 135 43 hstemhm
          57 51 195 77 156 76 167 50 hintmask 1101111110000000
          242 183 rmoveto
          203 29 hlineto
          -65 19 rlineto
          hintmask 1011111110000000
          138 14 vlineto
          30 -38 rlineto
          hintmask 1101111110000000
          39 -49 38 -50 37 -49 rrcurveto
          130 30 hlineto
          -82 18 rlineto
          hintmask 1011111110000000
          -117 138 rlineto
          38 hlineto
          64 41 53 54 53 -41 55 -64 hvcurveto
          -265 -31 hlineto
          61 -17 rlineto
          -308 vlineto
          -61 -16 rlineto
          hintmask 1101111110000000
          138 184 rmoveto
          159 79 vlineto
          45 32 -38 -41 -40 -32 -40 -45 hvcurveto
          -19 323 rmoveto
          181 4 callsubr
          -184 3 callgsubr
          8 -14 callgsubr
          210 18 callgsubr
          -206 hvcurveto
          endchar
        </CharString>
        <CharString name="ring">
          -57 566 30 171 30 hstem
          162 51 136 48 vstem
          280 767 -37 callgsubr
          -86 callsubr
        </CharString>
        <CharString name="s">
          -25 callsubr
          hstem
          8 callgsubr
          vstem
          299 -103 callsubr
          endchar
        </CharString>
        <CharString name="sacute">
          -25 callsubr
          251 -20 hstem
          8 callgsubr
          vstem
          299 -103 callsubr
          -165 325 rmoveto
          -102 callsubr
        </CharString>
        <CharString name="scaron">
          -25 callsubr
          251 -20 hstem
          66 79 218 75 vstem
          309 -103 callsubr
          -101 308 -96 callsubr
        </CharString>
        <CharString name="scedilla">
          -149 -215 -21 193 39 0 37 428 38 hstemhm
          56 79 77 124 -66 66 17 75 hintmask 10111101
          299 279 rmoveto
          -143 45 -21 23 36 vvcurveto
          49 36 29 68 35 34 -7 -19 24 vhcurveto
          31 -96 rlineto
          39 115 hlineto
          27 -35 -57 18 -67 hhcurveto
          -120 -67 -57 -88 -71 45 -34 101 -32 hvcurveto
          125 -40 26 -18 -41 vvcurveto
          -47 -34 -38 -76 -37 -48 8 27 -27 vhcurveto
          -29 98 rlineto
          -39 -116 hlineto
          31 -31 51 -19 67 -4 rrcurveto
          -68 vlineto
          hintmask 11011011
          -78 callsubr
          50 -40 22 -42 3 vhcurveto
          39 vlineto
          116 5 58 59 83 vvcurveto
          68 -40 41 -89 27 vhcurveto
          endchar
        </CharString>
        <CharString name="scircumflex">
          -25 callsubr
          0 87 -18 callgsubr
          8 callgsubr
          hintmask 11011100
          299 -103 callsubr
          -51 471 rmoveto
          -34 hlineto
          hintmask 10111100
          -102 callgsubr
        </CharString>
        <CharString name="section">
          -34 -282 41 950 40 hstemhm
          67 72 -72 96 237 85 -61 82 hintmask 11010100
          506 218 rmoveto
          88 -100 70 -88 64 vhcurveto
          -80 59 -75 52 65 vvcurveto
          56 44 37 72 31 20 -6 -19 19 vhcurveto
          40 -152 rlineto
          47 156 hlineto
          32 -35 -60 29 -60 hhcurveto
          -122 -92 -84 -91 -52 29 -51 84 -59 hvcurveto
          -72 -55 -46 -52 -56 vvcurveto
          -88 91 -65 88 -64 vhcurveto
          hintmask 11101000
          78 -56 81 -60 -66 vvcurveto
          -56 -50 -35 -72 -33 -26 5 19 -20 vhcurveto
          -40 152 rlineto
          -47 -156 hlineto
          -32 35 67 -29 61 hhcurveto
          133 74 80 88 3 hvcurveto
          4 vlineto
          51 -24 49 -77 61 vhcurveto
          hintmask 11100100
          72 56 50 56 55 vvcurveto
          -367 76 rmoveto
          27 28 31 43 37 vhcurveto
          191 -143 23 -27 -44 vvcurveto
          -27 -29 -37 -43 -37 vhcurveto
          -190 145 -23 29 46 vvcurveto
          endchar
        </CharString>
        <CharString name="semicolon">
          -361 -119 -21 252 248 0 132 hstemhm
          72 132 hintmask 11010000
          -2 callgsubr
          hintmask 10110000
          110 632 rmoveto
          -43 -23 -34 -32 -37 27 -29 39 39 27 27 39 39 -31 27 -35 hvcurveto
          endchar
        </CharString>
        <CharString name="seven">
          -67 21 -21 670 80 hstem
          82 543 rmoveto
          27 127 rlineto
          351 hlineto
          -157 -192 -137 -284 -42 -194 rrcurveto
          123 hlineto
          5 174 94 280 176 248 rrcurveto
          48 -492 -207 vlineto
          endchar
        </CharString>
        <CharString name="six">
          2 -9 44 398 61 228 41 hstem
          60 105 300 106 vstem
          165 369 rmoveto
          221 3 47 132 113 hhcurveto
          33 38 -10 -21 42 hvcurveto
          41 -147 rlineto
          51 148 hlineto
          49 -65 -62 22 -60 hhcurveto
          -163 -123 -172 -246 -180 83 -174 186 163 79 128 125 122 -75 128 -144 -70 -74 -31 -94 -43 hvcurveto
          1 -134 rmoveto
          135 71 63 73 101 54 -105 -101 -96 -49 -96 -104 -74 -72 61 131 vhcurveto
          endchar
        </CharString>
        <CharString name="slash">
          -212 -299 -21 1122 -20 hstem
          411 802 rmoveto
          -53 hlineto
          -446 -1122 rlineto
          54 hlineto
          endchar
        </CharString>
        <CharString name="space">
          -338 endchar
        </CharString>
        <CharString name="sterling">
          21 0 30 -30 75 289 37 321 35 hstemhm
          135 107 hintmask 10111000
          398 364 rmoveto
          37 -156 165 vlineto
          96 60 60 63 33 32 -9 -35 27 vhcurveto
          42 -134 rlineto
          44 132 hlineto
          52 -39 -62 29 -72 hhcurveto
          -188 -47 -137 -169 hvcurveto
          -50 -102 -37 102 -123 vlineto
          -163 -28 -48 -69 vhcurveto
          -30 532 vlineto
          hintmask 01111000
          75 -418 vlineto
          62 57 25 30 3 202 rrcurveto
          endchar
        </CharString>
        <CharString name="t">
          -264 -12 -29 callgsubr
          hintmask 11110000
          199 641 -84 callgsubr
          hintmask 11101000
          146 42 hlineto
          hintmask 11110000
          -146 hlineto
          endchar
        </CharString>
        <CharString name="tcaron">
          -223 -12 41 414 42 266 -20 hstemhm
          106 93 -93 239 hintmask 11110000
          293 571 -95 callgsubr
          -48 70 -84 callgsubr
          hintmask 11101000
          146 42 hlineto
          hintmask 11110000
          -146 hlineto
          endchar
        </CharString>
        <CharString name="thorn">
          -21 -294 -21 304 44 416 44 257 -20 hstemhm
          83 164 -89 89 279 102 hintmask 11110110
          85 715 rmoveto
          73 -13 rlineto
          -958 vlineto
          hintmask 11111010
          -75 -10 callgsubr
          243 37 vlineto
          -73 22 rlineto
          364 vlineto
          -79 30 55 -40 81 hhcurveto
          122 87 89 163 163 -87 89 -123 -80 -58 -36 -95 -33 hvcurveto
          388 -5 callsubr
          319 -301 rmoveto
          80 42 -64 -144 -136 -38 -72 -84 -92 -58 90 121 130 66 75 84 hvcurveto
          endchar
        </CharString>
        <CharString name="three">
          -16 -15 34 686 45 hstem
          441 102 vstem
          525 -33 callsubr
          36 -463 -207 51 vlineto
          38 162 rlineto
          259 hlineto
          -202 -294 rlineto
          65 hlineto
          98 62 -51 -145 8 hvcurveto
          -136 -3 -68 -60 -79 hhcurveto
          -47 -44 18 36 -41 hvcurveto
          -48 134 rlineto
          -51 -137 hlineto
          -57 59 80 -28 80 hhcurveto
          135 129 78 152 129 -72 83 -140 15 hvcurveto
          endchar
        </CharString>
        <CharString name="tilde">
          -57 618 68 -4 68 hstemhm
          hintmask 01000000
          109 624 -59 callsubr
          hintmask 10000000
          -95 callsubr
          hintmask 01000000
          -90 callsubr
        </CharString>
        <CharString name="trademark">
          487 369 -21 287 115 -40 40 hstemhm
          7 244 -87 87 -87 244 150 39 321 87 hintmask 10110011
          99 348 rmoveto
          217 39 hlineto
          -65 17 rlineto
          306 97 vlineto
          hintmask 11000111
          21 -75 rlineto
          39 115 hlineto
          hintmask 11010011
          -401 -115 40 hlineto
          hintmask 10101011
          19 75 rlineto
          98 -305 hlineto
          -65 -18 rlineto
          394 324 rmoveto
          65 -20 rlineto
          -286 vlineto
          -63 -18 rlineto
          -39 162 39 vlineto
          -60 17 rlineto
          275 vlineto
          134 -331 rlineto
          54 hlineto
          133 333 rlineto
          -275 vlineto
          -65 -19 rlineto
          -39 216 39 vlineto
          -64 19 rlineto
          289 vlineto
          62 16 rlineto
          39 -165 vlineto
          -121 -294 -119 294 rlineto
          -169 hlineto
          endchar
        </CharString>
        <CharString name="two">
          2 0 89 634 39 hstem
          428 98 vstem
          142 89 rmoveto
          22 173 361 109 1 203 rrcurveto
          99 -92 89 -137 -84 -86 -30 -57 -49 vhcurveto
          -132 51 vlineto
          49 132 rlineto
          33 31 39 15 39 hhcurveto
          100 41 -67 -68 hvcurveto
          -215 -368 -141 -195 vvcurveto
          -13 1 -13 3 -11 vhcurveto
          477 89 hlineto
          endchar
        </CharString>
        <CharString name="u">
          -36 callsubr
          485 -20 -99 callsubr
          endchar
        </CharString>
        <CharString name="uacute">
          -36 callsubr
          750 -20 -99 callsubr
          174 119 rmoveto
          -102 callsubr
        </CharString>
        <CharString name="ubreve">
          -36 callsubr
          594 -56 callgsubr
          114 94 -60 32 272 35 -35 87 hintmask 10101010
          -94 callsubr
          hintmask 01101001
          -93 callgsubr
          hintmask 10011010
          -87 callgsubr
          vlineto
          415 265 rmoveto
          hintmask 10101010
          -56 callsubr
          hintmask 10010110
          -97 callsubr
          endchar
        </CharString>
        <CharString name="ucircumflex">
          -36 callsubr
          485 101 164 -20 -32 callgsubr
          hintmask 10111100
          -94 callsubr
          hintmask 01111100
          -93 callgsubr
          hintmask 10111100
          -87 callgsubr
          vlineto
          288 265 rmoveto
          -34 hlineto
          -102 callgsubr
        </CharString>
        <CharString name="udieresis">
          -36 callsubr
          640 116 9 callsubr
          -68 -44 callsubr
          -41 87 hintmask 10110010
          -94 callsubr
          hintmask 01110010
          -93 callgsubr
          hintmask 10110100
          -87 callgsubr
          vlineto
          163 271 rmoveto
          hintmask 10101100
          -105 callsubr
        </CharString>
        <CharString name="ugrave">
          -36 callsubr
          750 -20 -99 callsubr
          408 120 rmoveto
          -93 callsubr
        </CharString>
        <CharString name="uhungarumlaut">
          -36 callsubr
          573 176 -99 callsubr
          270 88 -87 callsubr
        </CharString>
        <CharString name="umacron">
          -36 callsubr
          615 74 -99 callsubr
          131 204 -54 callsubr
        </CharString>
        <CharString name="underscore">
          -57 -191 67 hstem
          -124 vmoveto
          -67 562 67 vlineto
          endchar
        </CharString>
        <CharString name="uni00A0">
          -619 endchar
        </CharString>
        <CharString name="uni00AD">
          -255 -29 callsubr
          253 68 vlineto
          endchar
        </CharString>
        <CharString name="uni0122">
          183 -39 callgsubr
          64 0 40 701 38 9 callgsubr
          422 105 hintmask 11011100
          347 -257 -95 callgsubr
          192 544 rmoveto
          105 -23 rlineto
          -213 vlineto
          hintmask 10111100
          -100 callsubr
          endchar
        </CharString>
        <CharString name="uni0123">
          -1 callgsubr
          73 180 -20 16 callgsubr
          hintmask 1101111100010000
          313 749 rmoveto
          -148 -180 rlineto
          127 hlineto
          67 180 rlineto
          -221 -806 -92 callgsubr
          endchar
        </CharString>
        <CharString name="uni0136">
          243 -236 -21 278 -63 callgsubr
          hstem
          189 105 vstem
          400 -257 -95 callgsubr
          136 970 rmoveto
          78 -19 -274 -296 rlineto
          292 vlineto
          100 23 rlineto
          37 -304 -88 callgsubr
          89 4 callgsubr
          -254 vlineto
          endchar
        </CharString>
        <CharString name="uni0137">
          27 -39 callgsubr
          77 750 -20 hstemhm
          60 178 -95 95 hintmask 11110000
          280 -257 -95 callgsubr
          -174 971 rmoveto
          hintmask 11101000
          83 -14 rlineto
          -640 vlineto
          hintmask 11110000
          -62 callsubr
        </CharString>
        <CharString name="uni013B">
          83 -39 callgsubr
          77 0 44 706 -20 hstemhm
          190 105 hintmask 11011000
          297 -257 -95 callgsubr
          -161 970 rmoveto
          100 -59 callgsubr
          -100 -23 rlineto
          -37 552 -19 callsubr
          hintmask 10111000
          -27 callsubr
          37 -304 vlineto
          endchar
        </CharString>
        <CharString name="uni013C">
          -275 -39 callgsubr
          77 750 -43 callgsubr
          55 -1007 -67 callgsubr
        </CharString>
        <CharString name="uni0145">
          340 -236 -21 278 -63 callgsubr
          hstem
          183 50 488 50 vstem
          425 -257 -95 callgsubr
          244 970 rmoveto
          98 -26 rlineto
          -529 vlineto
          -408 592 rlineto
          -223 -37 hlineto
          93 -26 rlineto
          -628 vlineto
          -93 -10 callgsubr
          241 37 vlineto
          -98 22 rlineto
          627 vlineto
          468 -686 rlineto
          70 688 hlineto
          98 25 rlineto
          37 -246 vlineto
          endchar
        </CharString>
        <CharString name="uni0146">
          69 -39 callgsubr
          77 446 47 -42 callsubr
          hintmask 11110100
          67 450 rmoveto
          hintmask 11101100
          74 -14 rlineto
          -378 vlineto
          hintmask 11110100
          -99 callgsubr
          226 -743 -67 callgsubr
        </CharString>
        <CharString name="uni0156">
          228 -236 -21 278 -21 339 34 337 25 callgsubr
          392 -257 -95 callgsubr
          342 316 -97 callgsubr
          endchar
        </CharString>
        <CharString name="uni0157">
          -130 -39 callgsubr
          77 429 55 1 -7 callgsubr
          hintmask 11100100
          -31 callsubr
          hintmask 11101000
          -89 callsubr
          hintmask 11011000
          142 -166 vlineto
          67 -742 -67 callgsubr
        </CharString>
        <CharString name="uni0162">
          97 -39 callgsubr
          77 707 43 hstem
          304 105 vstem
          304 -257 -95 callgsubr
          -51 257 rmoveto
          -50 callgsubr
          -63 callsubr
          -49 callgsubr
          endchar
        </CharString>
        <CharString name="uni0163">
          -264 -39 callgsubr
          65 0 -29 callgsubr
          hintmask 10111100
          199 641 -84 callgsubr
          hintmask 11011010
          146 42 hlineto
          hintmask 11011100
          -146 hlineto
          -51 -742 -67 callgsubr
        </CharString>
        <CharString name="uni0218">
          -13 callsubr
          hstem
          7 callsubr
          vstem
          379 -104 callgsubr
          endchar
        </CharString>
        <CharString name="uni0219">
          -149 -39 callgsubr
          72 0 38 428 38 hstemhm
          8 callgsubr
          hintmask 10111100
          299 -103 callsubr
          -115 -536 rmoveto
          hintmask 11011100
          148 180 -46 callgsubr
          -67 -180 rlineto
          endchar
        </CharString>
        <CharString name="uni021A">
          97 -256 -21 180 97 707 43 hstem
          304 105 vstem
          300 -277 -95 callgsubr
          -47 277 rmoveto
          -50 callgsubr
          -63 callsubr
          -49 callgsubr
          endchar
        </CharString>
        <CharString name="uni021B">
          -264 -39 callgsubr
          65 0 -29 callgsubr
          hintmask 10111100
          199 641 -84 callgsubr
          hintmask 11011010
          146 42 hlineto
          hintmask 11011100
          -146 hlineto
          -52 -742 -67 callgsubr
        </CharString>
        <CharString name="uni0401">
          71 -80 callsubr
          71 3 callsubr
          159 105 -66 -44 callsubr
          hintmask 11111101
          60 -105 callgsubr
          203 187 rmoveto
          hintmask 11111011
          -105 callsubr
        </CharString>
        <CharString name="uni0402">
          190 -284 -21 326 -21 366 38 157 189 -43 43 hstemhm
          251 105 289 104 hintmask 11101110
          154 hmoveto
          -18 callsubr
          -102 22 rlineto
          307 110 vlineto
          111 68 -58 -117 hvcurveto
          -153 vlineto
          -160 -27 -67 -53 -99 vhcurveto
          28 -17 148 184 4 21 4 264 rlinecurve
          26 vlineto
          178 -134 36 -171 vhcurveto
          -88 303 165 hlineto
          hintmask 11110110
          39 -146 rlineto
          52 189 -602 -189 52 hlineto
          hintmask 11101110
          39 146 rlineto
          150 -647 hlineto
          -97 -23 rlineto
          endchar
        </CharString>
        <CharString name="uni0403">
          -14 21 -21 707 43 -43 239 hstemhm
          148 105 hintmask 10110000
          260 801 rmoveto
          234 -64 callgsubr
          -132 -145 rlineto
          25 -94 rmoveto
          256 hlineto
          39 -136 rlineto
          52 hlineto
          hintmask 11010000
          179 -551 -37 vlineto
          -53 callsubr
          -100 -41 callsubr
          -99 22 rlineto
          endchar
        </CharString>
        <CharString name="uni0404">
          134 19 callgsubr
          57 116 vstem
          477 284 rmoveto
          207 -37 vlineto
          -27 -81 rlineto
          -240 hlineto
          213 8 109 100 139 hhcurveto
          52 54 -14 -35 39 hvcurveto
          49 -159 rlineto
          52 162 hlineto
          57 -60 -89 26 -91 hhcurveto
          -213 -165 -136 -244 -243 162 -158 211 96 88 29 64 61 hvcurveto
          169 -47 vlineto
          -50 -166 rlineto
          -40 -43 -57 -16 -53 hhcurveto
          -149 -98 136 211 -5 hvcurveto
          239 hlineto
          28 -82 rlineto
          endchar
        </CharString>
        <CharString name="uni0405">
          -13 callsubr
          hstem
          7 callsubr
          vstem
          379 -104 callgsubr
          endchar
        </CharString>
        <CharString name="uni0406">
          23 callgsubr
          hstem
          189 105 vstem
          90 -85 callgsubr
          -61 callgsubr
          vlineto
          -100 22 rlineto
          631 vlineto
          -64 callsubr
          vlineto
          endchar
        </CharString>
        <CharString name="uni0407">
          -219 -82 callgsubr
          146 3 callsubr
          35 130 -6 105 -6 130 hintmask 11101000
          60 -85 callgsubr
          -61 callgsubr
          vlineto
          -100 22 rlineto
          631 vlineto
          -64 callsubr
          vlineto
          40 242 rmoveto
          hintmask 11110100
          -105 callsubr
        </CharString>
        <CharString name="uni0408">
          -144 -219 -21 990 -81 callgsubr
          endchar
        </CharString>
        <CharString name="uni0409">
          425 -1 callsubr
          888 116 vstem
          365 625 rmoveto
          220 -566 -96 -10 callgsubr
          221 vlineto
          -57 callgsubr
          -138 hlineto
          -138 345 rlineto
          -59 hlineto
          -273 -688 -84 -26 rlineto
          -36 139 vlineto
          431 365 rmoveto
          143 hlineto
          -53 callgsubr
          -14 hlineto
          endchar
        </CharString>
        <CharString name="uni040A">
          427 0 40 320 45 345 -20 hstem
          12 callsubr
          325 105 195 116 vstem
          492 hmoveto
          220 -34 callgsubr
          -9 285 hlineto
          102 -72 callsubr
          97 -24 rlineto
          -284 -325 284 vlineto
          100 24 rlineto
          -81 callsubr
          325 -300 vlineto
          -98 -23 rlineto
          233 328 rmoveto
          -53 callgsubr
          -30 325 hlineto
          endchar
        </CharString>
        <CharString name="uni040B">
          276 21 -21 367 38 174 171 -43 43 hstemhm
          263 105 283 105 hintmask 11011100
          160 hmoveto
          310 37 hlineto
          -102 23 rlineto
          307 104 vlineto
          113 66 -60 -119 hvcurveto
          -128 vlineto
          -100 -41 callsubr
          -99 24 rlineto
          129 vlineto
          179 -133 36 -172 vhcurveto
          -83 302 170 hlineto
          hintmask 11101100
          39 -128 rlineto
          52 171 -619 -171 52 hlineto
          hintmask 11011100
          39 128 rlineto
          162 -646 hlineto
          -103 -24 rlineto
          endchar
        </CharString>
        <CharString name="uni040C">
          183 -82 callgsubr
          216 -20 hstem
          159 105 vstem
          352 801 rmoveto
          234 -64 callgsubr
          -132 -145 rlineto
          -260 -51 rmoveto
          -88 callgsubr
          110 4 callgsubr
          -146 vlineto
          -325 -352 rlineto
          292 vlineto
          -40 callgsubr
          vlineto
          endchar
        </CharString>
        <CharString name="uni040E">
          159 -22 callsubr
          277 0 callsubr
          hintmask 11011100
          -58 callsubr
          467 920 rmoveto
          hintmask 11101100
          -56 callsubr
          hintmask 11011100
          -97 callsubr
          endchar
        </CharString>
        <CharString name="uni040F">
          238 -104 -21 125 46 704 -20 hstem
          139 -20 callsubr
          458 -125 rmoveto
          34 125 rlineto
          325 37 hlineto
          -102 23 rlineto
          630 -43 callsubr
          346 vlineto
          34 -125 rlineto
          endchar
        </CharString>
        <CharString name="uni0410">
          206 -52 callsubr
          hstem
          5 hmoveto
          252 37 hlineto
          -90 21 75 194 rlineto
          302 hlineto
          79 -194 -87 -37 callsubr
          284 37 vlineto
          -84 22 -288 699 rlineto
          -51 11 callgsubr
          -699 13 callgsubr
          251 253 rmoveto
          134 351 140 -351 rlineto
          endchar
        </CharString>
        <CharString name="uni0411">
          91 0 40 369 40 258 43 hstem
          149 106 279 116 vstem
          50 37 rmoveto
          -37 303 vlineto
          217 80 80 140 180 -134 49 -171 hvcurveto
          -90 258 256 hlineto
          39 -136 rlineto
          52 179 -550 -37 hlineto
          97 -59 callgsubr
          106 -20 rmoveto
          369 111 vlineto
          112 56 -65 -120 -120 -56 -64 -112 hvcurveto
          endchar
        </CharString>
        <CharString name="uni0412">
          87 0 40 325 42 303 40 hstemhm
          146 14 callsubr
          50 -84 callsubr
        </CharString>
        <CharString name="uni0413">
          -14 21 -21 707 43 24 callsubr
          -39 callsubr
          endchar
        </CharString>
        <CharString name="uni0414">
          306 -151 189 -38 38 720 -20 hstemhm
          hintmask 10100000
          915 -151 rmoveto
          189 -124 vlineto
          -295 720 rlineto
          -50 hlineto
          -312 -720 rlineto
          -124 -189 46 hlineto
          hintmask 01100000
          62 151 rlineto
          688 hlineto
          hintmask 10100000
          63 -151 rlineto
          -661 189 rmoveto
          231 603 241 -603 rlineto
          endchar
        </CharString>
        <CharString name="uni0415">
          61 -80 callsubr
          hstem
          149 105 vstem
          50 -105 callgsubr
          endchar
        </CharString>
        <CharString name="uni0416">
          542 -82 callgsubr
          hstem
          528 105 vstem
          332 750 rmoveto
          -4 callsubr
          hlineto
          89 -22 272 -256 -311 -376 -118 -10 callgsubr
          210 vlineto
          308 378 rlineto
          -318 vlineto
          -100 -23 rlineto
          -37 305 37 vlineto
          -100 23 rlineto
          318 vlineto
          308 -378 rlineto
          210 37 hlineto
          -118 22 -311 376 272 256 89 22 -45 callsubr
          78 -19 -274 -296 rlineto
          291 vlineto
          100 24 -82 callsubr
          99 -24 rlineto
          -291 vlineto
          -274 296 78 19 rlineto
          endchar
        </CharString>
        <CharString name="uni0417">
          -47 -9 37 338 37 320 36 hstemhm
          405 103 -87 101 hintmask 11110000
          297 385 rmoveto
          144 3 67 89 88 vvcurveto
          123 -122 71 -124 -80 -72 -29 -67 -45 vhcurveto
          -119 51 vlineto
          43 119 rlineto
          40 30 37 20 45 hhcurveto
          68 66 -49 -94 -115 -63 -59 -127 -3 hvcurveto
          -37 vlineto
          hintmask 11101000
          152 -3 54 -69 -114 vvcurveto
          -100 -78 -52 -77 -40 -41 15 29 -33 vhcurveto
          -43 131 rlineto
          -49 -131 hlineto
          -56 51 84 -25 72 hhcurveto
          133 122 82 127 92 -73 93 -152 hvcurveto
          endchar
        </CharString>
        <CharString name="uni0418">
          278 -82 callgsubr
          hstem
          157 -20 callsubr
          533 hmoveto
          -69 callsubr
        </CharString>
        <CharString name="uni0419">
          278 -22 callsubr
          157 105 15 32 224 83 -30 30 12 105 hintmask 1101110110000000
          586 957 rmoveto
          hintmask 1110111010000000
          -56 callsubr
          hintmask 1101111010000000
          -97 callsubr
          hintmask 1101110110000000
          hintmask 1110111010000000
          -83 -957 rmoveto
          -69 callsubr
        </CharString>
        <CharString name="uni041A">
          183 -82 callgsubr
          hstem
          159 105 vstem
          60 750 rmoveto
          -88 callgsubr
          110 4 callgsubr
          -146 vlineto
          -325 -352 rlineto
          292 vlineto
          -40 callgsubr
          vlineto
          endchar
        </CharString>
        <CharString name="uni041B">
          184 -82 callgsubr
          hstem
          367 625 rmoveto
          223 -566 -96 -22 -69 callgsubr
          -91 22 -276 691 rlineto
          -59 hlineto
          -283 -688 -84 -26 rlineto
          -36 139 vlineto
          endchar
        </CharString>
        <CharString name="uni041C">
          462 -82 callgsubr
          hstem
          156 52 605 104 vstem
          715 -75 callsubr
        </CharString>
        <CharString name="uni041D">
          278 21 -21 360 45 345 -20 hstem
          160 -20 callsubr
          533 -68 callsubr
          endchar
        </CharString>
        <CharString name="uni041E">
          193 -19 40 707 40 hstem
          50 116 1 callsubr
          vstem
          407 -106 callgsubr
          endchar
        </CharString>
        <CharString name="uni041F">
          278 21 -21 704 46 hstem
          159 -20 callsubr
          60 hmoveto
          -18 callsubr
          -100 22 rlineto
          645 366 -644 vlineto
          -97 -41 callsubr
          -102 23 rlineto
          630 vlineto
          102 -3 callgsubr
          -777 -37 vlineto
          -58 callgsubr
          endchar
        </CharString>
        <CharString name="uni0420">
          44 21 -21 324 40 346 40 hstem
          157 105 280 116 vstem
          60 -71 callsubr
        </CharString>
        <CharString name="uni0421">
          114 -21 40 704 37 hstem
          40 116 vstem
          658 -101 callgsubr
          endchar
        </CharString>
        <CharString name="uni0422">
          79 5 callgsubr
          hstemhm
          295 105 hintmask 10110000
          198 hmoveto
          -50 callgsubr
          hintmask 11010000
          -63 callsubr
          hintmask 10110000
          -49 callgsubr
          endchar
        </CharString>
        <CharString name="uni0423">
          159 -82 callgsubr
          hstem
          -58 callsubr
          endchar
        </CharString>
        <CharString name="uni0424">
          220 0 161 -49 49 437 50 -50 152 hstemhm
          22 115 230 104 229 117 hintmask 01101110
          270 -38 callgsubr
          97 -23 rlineto
          -42 vlineto
          -230 -115 -139 -132 -133 115 -132 230 hvcurveto
          -52 vlineto
          -97 -23 rlineto
          hintmask 10101110
          -37 -61 callgsubr
          vlineto
          -103 23 rlineto
          hintmask 01101110
          52 vlineto
          230 116 134 132 132 -115 138 -231 hvcurveto
          41 vlineto
          103 24 rlineto
          hintmask 10011110
          37 -304 vlineto
          97 -589 rmoveto
          -153 -77 109 108 107 76 113 154 hvcurveto
          104 hmoveto
          152 77 -113 -107 -107 -77 -110 -152 hvcurveto
          endchar
        </CharString>
        <CharString name="uni0425">
          212 -82 callgsubr
          hstem
          54 -76 callgsubr
        </CharString>
        <CharString name="uni0426">
          278 -130 -21 151 46 704 -20 hstem
          159 -20 callsubr
          887 -151 rmoveto
          197 -152 644 -43 callsubr
          723 vlineto
          66 -151 rlineto
          endchar
        </CharString>
        <CharString name="uni0427">
          212 21 -21 324 38 388 -20 hstem
          109 105 350 104 vstem
          10 -60 callsubr
          -151 vlineto
          -178 133 -36 172 vhcurveto
          150 -264 hlineto
          -97 -41 callsubr
          -103 23 rlineto
          629 vlineto
          103 24 -82 callsubr
          97 -23 rlineto
          -328 -171 vlineto
          -113 -66 59 119 hvcurveto
          150 vlineto
          -64 callsubr
          vlineto
          endchar
        </CharString>
        <CharString name="uni0428">
          545 0 2 callsubr
          437 -38 callgsubr
          -35 callsubr
          1024 37 vlineto
          -103 22 rlineto
          631 -19 callgsubr
          -292 -37 vlineto
          89 -23 rlineto
          -644 -255 644 vlineto
          95 -3 callgsubr
          -290 vlineto
          endchar
        </CharString>
        <CharString name="uni0429">
          572 -130 -21 151 2 callsubr
          1151 -151 rmoveto
          197 -160 644 -19 callgsubr
          -292 -37 vlineto
          89 -23 rlineto
          -644 -255 644 vlineto
          95 -3 callgsubr
          -290 -37 vlineto
          -35 callsubr
          977 vlineto
          66 -151 rlineto
          endchar
        </CharString>
        <CharString name="uni042A">
          175 0 40 325 40 302 43 hstem
          284 106 276 116 vstem
          186 hmoveto
          302 -34 callgsubr
          -91 285 hlineto
          102 -3 callgsubr
          -459 -179 52 vlineto
          39 136 rlineto
          161 -647 hlineto
          -97 -23 rlineto
          203 3 rmoveto
          325 111 vlineto
          -53 callgsubr
          endchar
        </CharString>
        <CharString name="uni042B">
          461 -1 callsubr
          167 105 277 116 140 105 vstem
          70 -67 callsubr
          434 348 rmoveto
          -57 callsubr
          -61 callgsubr
          vlineto
          -100 22 rlineto
          631 vlineto
          -64 callsubr
          vlineto
          endchar
        </CharString>
        <CharString name="uni042C">
          46 -1 callsubr
          157 105 277 116 vstem
          60 -67 callsubr
          endchar
        </CharString>
        <CharString name="uni042D">
          114 19 callgsubr
          572 116 vstem
          305 284 rmoveto
          28 82 rlineto
          239 hlineto
          -211 -5 -98 -136 -149 hhcurveto
          -53 -57 16 40 -43 hvcurveto
          -50 166 rlineto
          -47 -169 hlineto
          -64 61 88 -29 96 hhcurveto
          210 163 158 243 244 -167 136 -211 -91 -89 -26 -57 -60 hvcurveto
          -162 52 vlineto
          49 159 rlineto
          35 39 54 14 52 hhcurveto
          139 109 -100 -213 8 hvcurveto
          -240 hlineto
          -27 81 rlineto
          -37 -207 hlineto
          endchar
        </CharString>
        <CharString name="uni042E">
          527 -19 40 0 -21 360 45 323 40 -18 -20 hstemhm
          150 105 159 116 462 114 hintmask 10110111
          760 768 rmoveto
          -194 -140 -135 -228 -11 hvcurveto
          -160 284 hlineto
          100 24 rlineto
          hintmask 01101111
          -81 callsubr
          159 vlineto
          hintmask 10110111
          -232 5 131 -147 209 hhcurveto
          214 133 155 237 237 -135 158 -211 hvcurveto
          1 -40 rmoveto
          153 78 -118 -233 -240 -82 -116 -153 -160 -67 132 220 229 72 126 159 hvcurveto
          endchar
        </CharString>
        <CharString name="uni042F">
          173 -21 callgsubr
          hstem
          134 116 280 105 vstem
          25 37 rmoveto
          -37 202 vlineto
          247 334 rlineto
          56 -274 hlineto
          -102 -41 callsubr
          -97 23 rlineto
          630 vlineto
          97 -3 callgsubr
          -301 vlineto
          -216 -81 -64 -137 -151 100 -59 125 hvcurveto
          -225 -280 rlineto
          396 314 rmoveto
          -112 hlineto
          -112 -56 49 120 120 56 48 112 hvcurveto
          112 hlineto
          endchar
        </CharString>
        <CharString name="uni0430">
          -74 -65 callgsubr
          hstemhm
          32 96 228 94 hintmask 10111100
          450 60 rmoveto
          -104 callsubr
          hintmask 01111100
          -36 callgsubr
          hintmask 10111100
          -92 callsubr
          endchar
        </CharString>
        <CharString name="uni0431">
          -91 -9 41 419 42 109 38 127 -20 hstem
          10 107 286 100 vstem
          266 493 rmoveto
          -59 -46 -18 -27 -43 hvcurveto
          10 vlineto
          89 35 55 125 72 48 9 27 39 vhcurveto
          129 -41 vlineto
          -44 -112 rlineto
          -11 -19 -23 -4 -31 hhcurveto
          -255 -14 -224 -122 -156 61 -147 188 151 93 100 157 162 -102 83 -135 hvcurveto
          -8 -461 rmoveto
          -95 -46 65 148 149 46 57 95 107 38 -65 -139 -149 -49 -66 -96 hvcurveto
          endchar
        </CharString>
        <CharString name="uni0432">
          -46 0 35 199 42 174 35 hstemhm
          37 171 -94 94 221 78 -65 95 hintmask 11110010
          37 hmoveto
          373 hlineto
          80 47 67 64 47 -23 45 -55 20 hvcurveto
          hintmask 11110100
          -30 13 19 7 rlineto
          41 21 18 37 38 vvcurveto
          59 -51 67 -76 vhcurveto
          -343 -37 hlineto
          hintmask 11101100
          77 -22 rlineto
          -368 vlineto
          hintmask 11110010
          -77 -21 rlineto
          314 197 rmoveto
          60 31 -52 -50 -48 -30 -49 -61 hvcurveto
          -143 199 hlineto
          216 vmoveto
          129 hlineto
          hintmask 11110100
          57 35 -50 -43 -39 -22 -37 -49 -5 hvcurveto
          -150 hlineto
          endchar
        </CharString>
        <CharString name="uni0433">
          20 callgsubr
          hstem
          111 95 vstem
          36 -23 callsubr
          75 -21 rlineto
          -368 vlineto
          -78 -22 -47 callgsubr
          -81 22 rlineto
          389 176 vlineto
          26 -96 rlineto
          36 132 -408 hlineto
          endchar
        </CharString>
        <CharString name="uni0434">
          -18 -72 -21 93 36 453 -20 hstem
          6 36 rmoveto
          -129 27 vlineto
          39 93 rlineto
          456 hlineto
          36 -89 rlineto
          32 125 -82 hlineto
          -181 453 rlineto
          -54 hlineto
          -191 -453 rlineto
          322 hmoveto
          -256 hlineto
          127 372 rlineto
          endchar
        </CharString>
        <CharString name="uni0435">
          -121 -10 38 239 33 155 39 hstem
          27 100 252 80 vstem
          459 -107 callsubr
          endchar
        </CharString>
        <CharString name="uni0436">
          276 21 -21 484 1 callgsubr
          399 95 hintmask 10110000
          556 485 rmoveto
          -224 -36 hlineto
          67 -14 rlineto
          -156 vlineto
          hintmask 11010000
          -242 205 rlineto
          -90 -37 hlineto
          84 -21 180 -135 -201 -230 -98 -24 rlineto
          -37 158 vlineto
          209 261 rlineto
          -200 vlineto
          -76 -24 rlineto
          -37 247 37 vlineto
          -76 24 rlineto
          200 vlineto
          210 -261 rlineto
          158 37 hlineto
          -98 24 -204 227 180 138 84 -4 callgsubr
          -88 vlineto
          -242 -205 rlineto
          156 vlineto
          62 14 rlineto
          endchar
        </CharString>
        <CharString name="uni0437">
          -189 -11 37 202 38 191 35 hstemhm
          298 88 -73 94 hintmask 11110000
          289 249 rmoveto
          57 21 40 46 52 vvcurveto
          85 -95 39 -92 -59 -56 -17 -35 -31 vhcurveto
          -111 38 vlineto
          35 101 rlineto
          21 24 28 6 27 hhcurveto
          49 44 -25 -64 -59 -32 -43 -52 hvcurveto
          -68 -38 68 hlineto
          hintmask 11101000
          61 38 -35 -64 -72 -59 -31 -53 -29 -39 7 24 -27 hvcurveto
          -34 99 rlineto
          -37 -116 hlineto
          -35 35 66 -16 58 hhcurveto
          100 113 45 95 60 -49 41 -69 19 hvcurveto
          endchar
        </CharString>
        <CharString name="uni0438">
          55 5 callsubr
          117 94 247 94 vstem
          385 hmoveto
          249 37 hlineto
          -82 22 rlineto
          367 vlineto
          82 4 callgsubr
          -176 vlineto
          -247 -412 rlineto
          352 vlineto
          77 -3 callgsubr
          -248 -37 vlineto
          77 -22 rlineto
          -368 vlineto
          -77 -37 callsubr
          169 vlineto
          249 412 rlineto
          -353 vlineto
          -73 -22 rlineto
          endchar
        </CharString>
        <CharString name="uni0439">
          55 21 -21 563 -56 callgsubr
          117 94 -50 32 265 94 -82 30 hintmask 10110010
          470 719 rmoveto
          hintmask 11010100
          -56 callsubr
          hintmask 10101010
          -97 callsubr
          -115 -719 rmoveto
          249 37 hlineto
          hintmask 11010100
          -82 22 rlineto
          367 vlineto
          82 4 callgsubr
          -176 vlineto
          -247 -412 rlineto
          352 vlineto
          77 -3 callgsubr
          -248 -37 vlineto
          77 -22 rlineto
          -368 vlineto
          -77 -37 callsubr
          169 vlineto
          249 412 rlineto
          -353 vlineto
          -73 -22 rlineto
          endchar
        </CharString>
        <CharString name="uni043A">
          0 21 -21 484 1 callgsubr
          40 180 -97 97 hintmask 11010000
          40 449 rmoveto
          hintmask 11001000
          83 -14 rlineto
          -375 vlineto
          hintmask 11010000
          -46 callsubr
          210 -261 rlineto
          163 37 hlineto
          -98 24 -202 227 160 138 84 -4 callgsubr
          -96 vlineto
          -219 -207 rlineto
          hintmask 10110000
          208 -180 vlineto
          endchar
        </CharString>
        <CharString name="uni043B">
          -41 21 -21 22 -21 485 -20 hstemhm
          hintmask 01100000
          264 402 rmoveto
          124 -347 -69 -17 -47 callgsubr
          -78 17 -177 431 25 callsubr
          hintmask 10100000
          -38 123 vlineto
          endchar
        </CharString>
        <CharString name="uni043C">
          158 21 -21 484 1 callgsubr
          120 36 406 95 hintmask 11011000
          41 -23 callsubr
          79 -25 rlineto
          -364 vlineto
          -77 -10 callgsubr
          186 37 vlineto
          -73 22 rlineto
          378 vlineto
          176 -437 rlineto
          56 hlineto
          174 437 rlineto
          -377 vlineto
          -80 -23 -47 callgsubr
          -79 23 rlineto
          367 vlineto
          75 21 rlineto
          36 -191 vlineto
          -153 -375 rlineto
          hintmask 10111000
          -151 376 rlineto
          -196 hlineto
          endchar
        </CharString>
        <CharString name="uni043D">
          42 21 -21 227 36 222 -20 hstem
          116 94 237 94 vstem
          379 hmoveto
          244 37 hlineto
          -82 22 rlineto
          367 vlineto
          82 4 callgsubr
          -244 -37 vlineto
          68 -22 rlineto
          -163 -237 162 vlineto
          73 -3 callgsubr
          -244 -37 vlineto
          77 -22 rlineto
          -368 vlineto
          -77 -37 callsubr
          244 37 vlineto
          -73 22 rlineto
          168 237 -168 vlineto
          -68 -22 rlineto
          endchar
        </CharString>
        <CharString name="uni043E">
          -76 -35 callgsubr
          hstem
          28 101 286 100 vstem
          273 -103 callgsubr
          endchar
        </CharString>
        <CharString name="uni043F">
          43 21 -21 448 36 hstem
          116 95 238 95 vstem
          379 hmoveto
          244 37 hlineto
          -79 21 rlineto
          368 vlineto
          79 22 rlineto
          36 -584 -36 vlineto
          77 -22 rlineto
          -368 vlineto
          -77 -37 callsubr
          244 37 vlineto
          -72 22 rlineto
          389 238 -389 vlineto
          -70 -22 rlineto
          endchar
        </CharString>
        <CharString name="uni0440">
          -19 -83 callgsubr
        </CharString>
        <CharString name="uni0441">
          -141 -10 38 430 37 hstem
          25 103 vstem
          435 -101 callsubr
          endchar
        </CharString>
        <CharString name="uni0442">
          -107 21 -21 353 128 -36 36 hstemhm
          209 94 hintmask 10110000
          129 hmoveto
          -11 callsubr
          hlineto
          -80 21 rlineto
          387 131 vlineto
          hintmask 11010000
          25 -92 rlineto
          37 128 -480 -128 37 hlineto
          hintmask 10110000
          25 92 rlineto
          131 -386 hlineto
          -80 -22 rlineto
          endchar
        </CharString>
        <CharString name="uni0443">
          13 callsubr
          387 448 -100 callgsubr
          hintmask 10100000
          10 callgsubr
          endchar
        </CharString>
        <CharString name="uni0444">
          208 -293 -21 303 36 432 36 257 -20 hstemhm
          10 97 185 163 -84 84 265 97 hintmask 11111101
          292 -314 rmoveto
          244 37 hlineto
          -81 22 rlineto
          363 vlineto
          -79 31 55 -40 81 hhcurveto
          137 58 125 125 127 -60 127 -136 -73 -62 -35 -80 -31 hvcurveto
          372 -163 -37 vlineto
          hintmask 11111011
          79 -22 rlineto
          -313 vlineto
          80 -29 -63 35 -73 hhcurveto
          -136 -60 -127 -127 -125 57 -125 137 81 56 40 79 30 hvcurveto
          -363 vlineto
          hintmask 11111101
          -79 -22 rlineto
          -70 734 rmoveto
          78 70 -79 -137 -123 -58 -93 -93 -83 -29 104 107 110 32 111 83 hvcurveto
          382 hmoveto
          83 33 -112 -110 -106 -30 -104 -83 -92 -58 93 123 136 68 80 79 hvcurveto
          endchar
        </CharString>
        <CharString name="uni0445">
          0 5 callsubr
          35 -10 callsubr
          205 38 vlineto
          -65 -38 callsubr
          -198 -37 vlineto
          65 -8 callgsubr
        </CharString>
        <CharString name="uni0446">
          28 -68 -21 89 36 448 -20 hstem
          117 95 238 95 vstem
          642 -89 rmoveto
          125 -97 390 vlineto
          79 -4 callgsubr
          -238 -37 vlineto
          64 -22 rlineto
          -389 -238 389 vlineto
          67 4 callgsubr
          -239 -40 callsubr
          544 vlineto
          36 -89 rlineto
          endchar
        </CharString>
        <CharString name="uni0447">
          3 0 219 -38 38 263 -20 hstemhm
          73 95 240 94 hintmask 10111000
          330 hmoveto
          -11 callsubr
          hlineto
          -82 22 rlineto
          364 vlineto
          82 22 -45 callsubr
          76 -22 rlineto
          -141 -12 -54 -63 -80 hhcurveto
          -59 -33 34 96 hvcurveto
          72 vlineto
          86 24 -45 callsubr
          73 -21 rlineto
          -67 vlineto
          hintmask 01111000
          -120 63 -56 97 83 68 43 91 24 vhcurveto
          -256 vlineto
          -78 -22 rlineto
          endchar
        </CharString>
        <CharString name="uni0448">
          280 0 -71 callgsubr
          810 36 vlineto
          -79 22 rlineto
          368 vlineto
          79 -4 callgsubr
          -229 vlineto
          endchar
        </CharString>
        <CharString name="uni0449">
          265 -68 -21 89 -71 callgsubr
          770 vlineto
          36 -89 rlineto
          22 125 -18 hlineto
          -79 1 rlineto
          389 vlineto
          79 -4 callgsubr
          -229 vlineto
          endchar
        </CharString>
        <CharString name="uni044A">
          -51 0 36 187 36 186 36 hstem
          182 96 187 94 vstem
          363 -23 callsubr
          33 -337 -132 36 vlineto
          26 96 rlineto
          94 -387 hlineto
          -80 -37 callsubr
          331 vlineto
          84 42 64 65 65 -42 65 -84 hvcurveto
          -155 165 hlineto
          -388 vmoveto
          187 97 vlineto
          60 30 -47 -47 -47 -30 -46 -60 hvcurveto
          endchar
        </CharString>
        <CharString name="uni044B">
          193 0 36 187 36 226 -20 hstem
          114 95 188 94 103 94 vstem
          41 -62 callgsubr
          479 202 rmoveto
          83 23 rlineto
          -51 callgsubr
          endchar
        </CharString>
        <CharString name="uni044C">
          -118 0 36 187 36 222 -20 hstem
          109 95 188 94 vstem
          36 -62 callgsubr
          endchar
        </CharString>
        <CharString name="uni044D">
          -142 -10 38 199 37 194 37 hstem
          351 103 vstem
          216 155 rmoveto
          23 72 rlineto
          112 hlineto
          -140 -3 -58 -59 -93 hhcurveto
          -27 -35 5 9 -19 hvcurveto
          -35 114 rlineto
          -37 -118 hlineto
          -32 35 67 -16 60 hhcurveto
          140 108 89 160 163 -111 93 -143 -58 -68 -15 -28 -28 hvcurveto
          -124 37 vlineto
          33 109 rlineto
          15 20 40 6 28 hhcurveto
          87 53 -65 -129 7 hvcurveto
          -112 hlineto
          -23 67 rlineto
          -32 -176 hlineto
          endchar
        </CharString>
        <CharString name="uni044E">
          159 -9 41 -11 -21 227 36 189 33 9 -20 hstemhm
          106 94 95 101 267 100 hintmask 10101111
          530 494 rmoveto
          -141 -85 -86 -145 -9 hvcurveto
          -95 162 hlineto
          83 23 rlineto
          hintmask 01110111
          -51 callgsubr
          168 95 vlineto
          hintmask 10101111
          -153 4 86 -83 144 hhcurveto
          145 89 85 164 164 -89 90 -144 hvcurveto
          hintmask 10110111
          -42 vmoveto
          104 29 -77 -133 -151 -39 -59 -96 -93 -39 57 150 151 38 62 96 hvcurveto
          endchar
        </CharString>
        <CharString name="uni044F">
          -54 21 -21 222 36 187 36 hstem
          82 94 183 95 vstem
          527 37 rmoveto
          -73 21 rlineto
          366 vlineto
          73 20 rlineto
          37 -319 vlineto
          -76 -50 -64 -65 -65 50 -65 76 hvcurveto
          53 hlineto
          -141 -161 -91 -24 rlineto
          -37 145 vlineto
          167 222 rlineto
          18 -161 hlineto
          -77 -24 rlineto
          -37 245 vlineto
          -261 258 rmoveto
          -53 -37 47 47 47 37 46 53 hvcurveto
          93 -187 hlineto
          endchar
        </CharString>
        <CharString name="uni0451">
          -65 callsubr
          111 3 callsubr
          51 100 -50 -44 callsubr
          -51 80 hintmask 11111001
          483 -107 callsubr
          -121 266 rmoveto
          hintmask 11110110
          -105 callsubr
        </CharString>
        <CharString name="uni0452">
          -249 -21 291 -21 448 45 78 38 -38 179 -28 callsubr
          hintmask 11110101
          40 571 rmoveto
          hintmask 11110011
          73 -512 hlineto
          hintmask 11110101
          -73 -10 callgsubr
          237 37 vlineto
          -69 20 rlineto
          125 vlineto
          183 58 83 91 59 31 -37 -96 vhcurveto
          -278 vlineto
          -144 -1 -48 -72 -86 vhcurveto
          -6 -7 29 -22 rlineto
          122 134 23 31 195 vvcurveto
          227 vlineto
          119 -62 57 -101 -85 -63 -41 -89 -23 vhcurveto
          208 146 38 -146 vlineto
          hintmask 11101101
          141 -168 -36 vlineto
          hintmask 11110011
          73 -12 rlineto
          -93 vlineto
          hintmask 11110101
          -73 hlineto
          endchar
        </CharString>
        <CharString name="uni0453">
          20 callgsubr
          266 -20 hstem
          111 95 vstem
          121 605 rmoveto
          234 -64 callgsubr
          -132 -145 rlineto
          -53 -157 rmoveto
          75 -21 rlineto
          -368 vlineto
          -78 -22 -47 callgsubr
          -81 22 rlineto
          389 176 vlineto
          26 -96 rlineto
          36 132 -408 hlineto
          endchar
        </CharString>
        <CharString name="uni0454">
          -104 -10 38 199 37 194 37 hstem
          47 103 vstem
          323 155 rmoveto
          176 -32 vlineto
          -24 -67 rlineto
          -117 hlineto
          129 7 53 65 87 hhcurveto
          28 40 -6 -15 20 hvcurveto
          33 -109 rlineto
          37 124 hlineto
          27 -30 -65 16 -59 hhcurveto
          -143 -111 -93 -163 -160 108 -89 140 60 67 16 32 35 hvcurveto
          118 -37 vlineto
          -35 -114 rlineto
          -9 -19 -35 -5 -27 hhcurveto
          -93 -58 59 140 -3 hvcurveto
          117 hlineto
          24 -72 rlineto
          endchar
        </CharString>
        <CharString name="uni0455">
          -25 callsubr
          hstem
          8 callgsubr
          vstem
          299 -103 callsubr
          endchar
        </CharString>
        <CharString name="uni0456">
          -306 21 -21 640 116 -11 callgsubr
          -129 129 -94 94 hintmask 11001000
          -91 callgsubr
          98 271 rmoveto
          hintmask 11010000
          -107 callgsubr
          endchar
        </CharString>
        <CharString name="uni0457">
          -287 21 -21 600 114 hstemhm
          -5 14 callgsubr
          60 -79 callsubr
        </CharString>
        <CharString name="uni0458">
          -79 callgsubr
        </CharString>
        <CharString name="uni0459">
          127 0 36 187 36 227 -20 hstem
          612 94 vstem
          577 hmoveto
          72 57 57 72 71 -57 59 -72 hvcurveto
          -155 hlineto
          -94 227 25 callsubr
          -38 123 vlineto
          132 386 128 -331 -69 -17 rlineto
          -38 vlineto
          190 223 rmoveto
          50 43 -43 -51 -51 -43 -42 -50 hvcurveto
          -5 hlineto
          -77 187 rlineto
          endchar
        </CharString>
        <CharString name="uni045A">
          210 0 36 191 39 219 -20 hstem
          148 94 236 95 140 94 vstem
          401 hmoveto
          280 hlineto
          84 42 66 66 67 -43 67 -83 hvcurveto
          -108 160 hlineto
          82 22 -45 callsubr
          77 -22 rlineto
          -163 -236 162 vlineto
          83 23 rlineto
          -51 callgsubr
          168 236 -169 vlineto
          -77 -21 rlineto
          222 191 rmoveto
          60 30 -49 -48 -48 -30 -47 -60 hvcurveto
          -50 192 hlineto
          endchar
        </CharString>
        <CharString name="uni045B">
          -24 21 -21 449 44 77 40 -40 180 hstemhm
          10 168 -95 95 239 95 hintmask 11101010
          10 570 rmoveto
          hintmask 11100110
          73 -511 hlineto
          hintmask 11101010
          -73 -10 callgsubr
          237 37 vlineto
          -69 20 rlineto
          125 vlineto
          183 58 84 91 59 31 -38 -96 vhcurveto
          -257 vlineto
          -69 -37 callsubr
          237 37 vlineto
          -73 21 rlineto
          259 vlineto
          119 -62 57 -101 -85 -63 -41 -89 -23 vhcurveto
          207 146 40 -146 vlineto
          hintmask 11010110
          140 -162 -36 vlineto
          67 -12 rlineto
          hintmask 11100110
          -92 vlineto
          hintmask 11101010
          -73 hlineto
          endchar
        </CharString>
        <CharString name="uni045C">
          0 -82 callgsubr
          hstemhm
          40 180 -97 97 hintmask 11100000
          179 605 rmoveto
          234 -64 callgsubr
          -132 -145 rlineto
          -107 -156 rmoveto
          hintmask 11010000
          83 -14 rlineto
          -375 vlineto
          hintmask 11100000
          -46 callsubr
          212 -261 rlineto
          169 37 hlineto
          -98 24 -201 243 151 122 84 -4 callgsubr
          -96 vlineto
          -219 -207 rlineto
          208 -180 vlineto
          endchar
        </CharString>
        <CharString name="uni045E">
          -12 -240 56 778 -56 callgsubr
          161 0 callsubr
          hintmask 10111000
          470 750 rmoveto
          hintmask 11011000
          -56 callsubr
          hintmask 10111000
          -97 callsubr
          -113 -302 -100 callgsubr
          10 callgsubr
          endchar
        </CharString>
        <CharString name="uni045F">
          85 -104 -21 125 36 448 -20 hstem
          137 95 238 95 vstem
          368 -125 rmoveto
          34 125 rlineto
          242 36 hlineto
          -79 22 rlineto
          368 vlineto
          79 21 -45 callsubr
          80 -22 rlineto
          -389 -238 389 vlineto
          82 22 rlineto
          37 -254 -40 callsubr
          236 vlineto
          34 -125 rlineto
          endchar
        </CharString>
        <CharString name="uni0490">
          -14 21 -21 707 43 167 -20 24 callsubr
          347 210 -52 hlineto
          -40 -167 rlineto
          -459 -37 hlineto
          -53 callsubr
          -100 -41 callsubr
          -99 22 rlineto
          endchar
        </CharString>
        <CharString name="uni0491">
          20 callgsubr
          128 -20 hstem
          111 95 vstem
          36 -23 callsubr
          75 -21 rlineto
          -368 vlineto
          -78 -22 -47 callgsubr
          -81 22 rlineto
          389 238 164 -35 vlineto
          -29 -128 rlineto
          -344 hlineto
          endchar
        </CharString>
        <CharString name="uniF6C3">
          -338 -39 callgsubr
          -20 hstem
          100 -257 -67 callgsubr
        </CharString>
        <CharString name="uogonek">
          16 -227 32 184 52 -20 -21 485 -20 9 callsubr
          238 75 -75 93 hintmask 10111100
          612 -61 callsubr
          31 37 hlineto
          hintmask 11011010
          -79 23 rlineto
          425 -24 callsubr
          73 -13 rlineto
          -126 vlineto
          -87 callgsubr
          -37 vlineto
          72 -13 rlineto
          -266 vlineto
          -121 57 -59 107 71 68 49 97 35 vhcurveto
          hintmask 10111100
          -135 106 vlineto
          -51 callsubr
          endchar
        </CharString>
        <CharString name="uring">
          -36 callsubr
          566 30 171 30 9 callsubr
          -8 51 136 48 17 87 hintmask 10111011
          -94 callsubr
          hintmask 01111011
          -93 callgsubr
          hintmask 10111011
          -87 callgsubr
          vlineto
          276 282 -37 callgsubr
          hvcurveto
          hintmask 10110111
          -86 callsubr
        </CharString>
        <CharString name="utilde">
          -36 callsubr
          618 68 -4 68 -32 callgsubr
          hintmask 10101100
          -94 callsubr
          hintmask 01101100
          -93 callgsubr
          hintmask 10011100
          -87 callgsubr
          vlineto
          107 139 -59 callsubr
          hintmask 10101100
          -95 callsubr
          hintmask 10011100
          -90 callsubr
        </CharString>
        <CharString name="v">
          9 5 callsubr
          388 -23 callsubr
          72 -17 -117 -331 -128 331 69 17 -45 callsubr
          78 -17 177 -431 rlineto
          59 hlineto
          180 431 74 17 rlineto
          37 -210 vlineto
          endchar
        </CharString>
        <CharString name="w">
          325 21 -21 486 1 callgsubr
          hintmask 10100000
          -98 callsubr
          hintmask 11000000
          38 -209 vlineto
          endchar
        </CharString>
        <CharString name="wacute">
          325 21 -21 487 -20 283 -20 hstem
          -98 callsubr
          38 -209 vlineto
          -318 118 rmoveto
          -102 callsubr
        </CharString>
        <CharString name="wcircumflex">
          325 21 -21 487 -20 283 -20 hstem
          -98 callsubr
          38 -209 vlineto
          -194 264 rmoveto
          -34 hlineto
          -102 callgsubr
        </CharString>
        <CharString name="wdieresis">
          325 21 -21 487 -20 173 10 callsubr
          312 6 callgsubr
          -98 callsubr
          38 -209 vlineto
          -328 270 rmoveto
          -105 callsubr
        </CharString>
        <CharString name="wgrave">
          325 21 -21 487 -20 283 -20 hstem
          -98 callsubr
          38 -209 vlineto
          -100 119 rmoveto
          -93 callsubr
        </CharString>
        <CharString name="x">
          -9 5 callsubr
          30 -10 callsubr
          210 38 vlineto
          -70 -38 callsubr
          -204 -37 vlineto
          71 -8 callgsubr
        </CharString>
        <CharString name="y">
          13 callsubr
          377 448 -100 callgsubr
          hintmask 10100000
          10 callgsubr
          endchar
        </CharString>
        <CharString name="yacute">
          -141 -240 56 934 -20 hstem
          315 448 -100 callgsubr
          10 callgsubr
          -173 118 rmoveto
          -102 callsubr
        </CharString>
        <CharString name="ycircumflex">
          -12 -240 56 669 101 164 -20 hstem
          377 448 -100 callgsubr
          10 callgsubr
          -39 264 rmoveto
          -34 hlineto
          -102 callgsubr
        </CharString>
        <CharString name="ydieresis">
          -12 -240 56 824 10 callsubr
          126 6 callgsubr
          377 448 -100 callgsubr
          10 callgsubr
          -186 270 rmoveto
          -105 callsubr
        </CharString>
        <CharString name="yen">
          76 21 -21 222 44 55 44 385 -20 hstem
          353 105 vstem
          144 321 rmoveto
          200 hlineto
          9 -14 rlineto
          -41 -209 -44 209 -163 vlineto
          -96 -22 -69 callgsubr
          -103 23 rlineto
          162 212 44 -212 55 212 44 -186 vlineto
          196 322 89 27 rlineto
          36 -245 -36 vlineto
          87 -25 -175 -323 -190 326 88 21 -82 callsubr
          96 -25 192 -323 rlineto
          -174 hlineto
          endchar
        </CharString>
        <CharString name="ygrave">
          -12 -240 56 934 -20 hstem
          377 448 -100 callgsubr
          10 callgsubr
          59 119 rmoveto
          -93 callsubr
        </CharString>
        <CharString name="z">
          20 callsubr
          hstem
          37 -85 callsubr
          endchar
        </CharString>
        <CharString name="zacute">
          20 callsubr
          265 -20 hstem
          37 -85 callsubr
          -298 119 rmoveto
          -102 callsubr
        </CharString>
        <CharString name="zcaron">
          -172 0 43 400 42 265 -20 hstem
          32 -85 callsubr
          -206 102 -96 callsubr
        </CharString>
        <CharString name="zdotaccent">
          20 callsubr
          125 10 callsubr
          37 -85 callsubr
          -194 241 rmoveto
          -107 callgsubr
          endchar
        </CharString>
        <CharString name="zero">
          -1 -8 39 688 38 hstem
          40 112 316 110 vstem
          308 719 rmoveto
          109 51 -121 -228 -229 -60 -110 -99 -115 -42 135 219 224 60 110 96 hvcurveto
          6 38 rmoveto
          -163 -111 -134 -241 -263 120 -127 149 148 121 128 251 263 -120 123 -144 hvcurveto
          endchar
        </CharString>
      <CharString index="0">
        -39 -26 -21 -37 -37 26 -21 39 43 22 25 33 36 -26 22 -39 hvcurveto
        return
      </CharString>
      <CharString index="1">
        728 rmoveto
        153 88 -118 -233 -239 -93 -117 -152 -161 -76 132 220 229 82 126 159 hvcurveto
        -1 40 rmoveto
        -204 -152 -148 -247 -240 142 -152 213 214 143 155 237 237 -145 158 -211 hvcurveto
        return
      </CharString>
      <CharString index="2">
        -85 callgsubr
        570 2 callgsubr
        vlineto
        -39 -135 rlineto
        -274 321 193 hlineto
        27 -76 rlineto
        37 207 -37 hlineto
        -27 -87 rlineto
        -193 299 17 callgsubr
        hlineto
        return
      </CharString>
      <CharString index="3">
        418 rmoveto
        -80 40 -130 37 108 vvcurveto
        75 71 40 76 37 49 -10 -20 37 vhcurveto
        46 -152 rlineto
        51 146 hlineto
        59 -62 -98 18 -67 hhcurveto
        -164 -75 -103 -97 -106 90 -59 91 -37 hvcurveto
        90 -45 137 -38 3 -123 rrcurveto
        -96 -5 -113 -25 -59 hhcurveto
        -45 -50 15 21 -33 hvcurveto
        -43 162 rlineto
        -58 -165 hlineto
        21 -13 23 -12 25 -11 rrcurveto
        -19 43 56 -17 64 hhcurveto
        116 159 61 144 115 -102 64 -101 43 hvcurveto
        return
      </CharString>
      <CharString index="4">
        452 rmoveto
        104 38 -75 -135 -151 -48 -59 -96 -93 -49 57 150 151 48 62 96 hvcurveto
        42 vmoveto
        -147 -98 -96 -159 -159 97 -89 147 144 99 86 163 163 -98 91 -144 hvcurveto
        return
      </CharString>
      <CharString index="5">
        -146 -164 rlineto
        39 hlineto
        124 75 132 -75 rlineto
        40 hlineto
        endchar
      </CharString>
      <CharString index="6">
        241 rmoveto
        -47 hlineto
        -50 -166 rlineto
        -40 -43 -57 -16 -53 hhcurveto
        -152 -100 134 220 233 111 117 145 52 54 -14 -35 39 hvcurveto
        49 -159 rlineto
        52 162 hlineto
        57 -60 -89 26 -91 hhcurveto
        -213 -165 -146 -244 -243 162 -148 211 96 88 29 64 61 hvcurveto
        return
      </CharString>
      <CharString index="7">
        rmoveto
        77 -13 -121 -325 -137 324 68 14 -45 callsubr
        83 -18 191 -432 -43 -107 -17 -70 -69 -5 rlinecurve
        -25 90 rlineto
        -37 -146 44 hlineto
        90 20 39 125 53 hvcurveto
        208 512 79 12 rlineto
        return
      </CharString>
      <CharString index="8">
        -74 -37 callsubr
        239 -7 callsubr
        119 vlineto
        183 55 87 93 61 28 -42 -109 vhcurveto
        -238 vlineto
        -67 -20 rlineto
        -37 237 37 vlineto
        -77 22 rlineto
        248 vlineto
        110 -47 76 -112 -91 -60 -49 -99 -27 vhcurveto
        141 -5 callsubr
        return
      </CharString>
      <CharString index="9">
        1002 -33 callsubr
        88 -24 -172 -558 -220 618 rlineto
        -62 hlineto
        -209 -609 -184 550 101 22 -82 callsubr
        92 -23 235 -690 rlineto
        60 hlineto
        214 619 218 -619 rlineto
        60 hlineto
        241 688 87 26 rlineto
        36 -245 vlineto
        return
      </CharString>
      <CharString index="10">
        rmoveto
        -225 280 rlineto
        125 100 59 151 137 -81 64 -216 hvcurveto
        -301 -37 hlineto
        -77 callgsubr
        274 56 vlineto
        247 -334 rlineto
        202 37 hlineto
        -505 673 rmoveto
        112 hlineto
        112 56 -48 -120 -120 -56 -49 -112 hvcurveto
        -112 hlineto
        return
      </CharString>
      <CharString index="11">
        30 -38 callgsubr
        96 -25 227 -381 rlineto
        -248 vlineto
        -96 -22 -69 callgsubr
        -103 23 rlineto
        261 vlineto
        222 366 89 27 rlineto
        36 -245 -36 vlineto
        87 -25 -175 -323 -190 326 88 -4 callgsubr
        -304 vlineto
        return
      </CharString>
      <CharString index="12">
        rmoveto
        148 180 -46 callgsubr
        -67 -180 rlineto
        return
      </CharString>
      <CharString index="13">
        -61 -33 -30 -42 -51 vvcurveto
        -100 88 -56 139 152 109 68 126 89 -47 46 -125 3 vhcurveto
        -99 8 rlineto
        -88 8 -10 15 36 vvcurveto
        20 8 16 41 23 vhcurveto
        -5 24 20 -3 23 hhcurveto
        return
      </CharString>
      <CharString index="14">
        -135 166 37 vlineto
        -79 23 rlineto
        425 -24 callsubr
        73 -13 rlineto
        -126 vlineto
        return
      </CharString>
      <CharString index="15">
        -91 callsubr
        hintmask 1101111010100000
        -73 callgsubr
        -70 callgsubr
        hintmask 1101111001100000
        -50 callsubr
        hintmask 1010111100010000
        -94 callgsubr
        hintmask 1101111100100000
        -60 callgsubr
        return
      </CharString>
      <CharString index="16">
        -70 callsubr
        hintmask 11100000
        -73 -10 callgsubr
        237 -7 callsubr
        428 -5 callsubr
        return
      </CharString>
      <CharString index="17">
        -59 callsubr
        hintmask 11101100
        -95 callsubr
        hintmask 11011100
        -90 callsubr
      </CharString>
      <CharString index="18">
        646 861 rmoveto
        -53 hlineto
        -47 -117 rlineto
        16 -40 -44 8 -48 hhcurveto
        -204 -152 -148 -247 -175 74 -125 123 -59 hvcurveto
        -62 -155 rlineto
        54 hlineto
        55 138 rlineto
        -11 35 36 -5 40 hhcurveto
        214 143 155 237 164 -67 123 -112 63 hvcurveto
        -176 5 rmoveto
        43 37 -10 -19 33 hvcurveto
        -253 -633 rlineto
        -68 56 -33 106 145 vvcurveto
        229 82 126 159 vhcurveto
        241 -351 rmoveto
        -239 -93 -117 -152 -35 -30 6 12 -27 vhcurveto
        250 629 rlineto
        56 -57 31 -97 -137 vvcurveto
        return
      </CharString>
      <CharString index="19">
        -37 vlineto
        -57 callsubr
        -61 callgsubr
        vlineto
        -100 22 rlineto
        319 vlineto
        308 -378 rlineto
        210 37 hlineto
        -118 22 -311 376 272 256 return
      </CharString>
      <CharString index="20">
        -187 -60 -81 -90 -61 -27 38 107 vhcurveto
        299 -166 return
      </CharString>
      <CharString index="21">
        -20 callgsubr
        447 564 rmoveto
        -53 hlineto
        -31 -79 rlineto
        6 -22 -24 3 -25 hhcurveto
        -147 -98 -96 -159 -113 48 -76 80 -36 hvcurveto
        -41 -105 rlineto
        54 hlineto
        35 89 rlineto
        -4 21 23 -3 24 hhcurveto
        144 99 86 163 113 -48 77 -77 39 hvcurveto
        -117 -17 rmoveto
        20 18 -3 -6 16 hvcurveto
        -151 -378 rlineto
        -31 31 -16 55 88 vvcurveto
        151 48 62 96 vhcurveto
        142 -210 rmoveto
        -151 -48 -59 -96 -20 -17 2 5 -14 vhcurveto
        149 376 rlineto
        32 -35 14 -58 -80 vvcurveto
        return
      </CharString>
      <CharString index="22">
        713 rmoveto
        -57 callsubr
        return
      </CharString>
      <CharString index="23">
        rmoveto
        -93 -53 rlineto
        -103 -86 -42 86 -308 vlineto
        -103 46 -44 76 28 38 6 13 48 vhcurveto
        37 vlineto
        -11 -39 -24 -4 -19 hhcurveto
        -43 -18 24 80 hvcurveto
        310 vlineto
        return
      </CharString>
      <CharString index="24">
        -294 -21 304 44 416 44 hstemhm
        30 170 -95 95 273 102 hintmask 11101100
        32 450 rmoveto
        73 -13 rlineto
        -693 vlineto
        hintmask 11110100
        -75 -10 callgsubr
        243 37 vlineto
        -73 22 rlineto
        364 vlineto
        -79 30 55 -40 81 hhcurveto
        122 87 89 163 163 -87 89 -123 -80 -58 -36 -95 -33 hvcurveto
        123 -5 callsubr
        319 -36 rmoveto
        80 42 -64 -144 -136 -38 -72 -84 -92 -58 90 121 130 66 75 84 hvcurveto
        endchar
      </CharString>
      <CharString index="25">
        21 -63 callgsubr
        return
      </CharString>
      <CharString index="26">
        -20 hstem
        178 106 vstem
        81 -38 callgsubr
        97 -23 rlineto
        -522 vlineto
        -192 -1 -60 -107 -139 vhcurveto
        28 -17 rlineto
        186 162 0 94 262 vvcurveto
        412 23 callsubr
        vlineto
        return
      </CharString>
      <CharString index="27">
        97 -23 -17 callgsubr
        -97 -41 callsubr
        return
      </CharString>
      <CharString index="28">
        -378 -301 -21 807 155 0 3 callsubr
        64 120 -95 95 hintmask 11001000
        22 449 rmoveto
        67 -12 rlineto
        -452 vlineto
        -144 -1 -48 -72 -86 vhcurveto
        -6 -7 29 -22 rlineto
        122 134 23 31 195 vvcurveto
        447 -5 callsubr
        hintmask 10110000
        107 271 rmoveto
        -107 callgsubr
        endchar
      </CharString>
      <CharString index="29">
        138 -57 -91 callsubr
        return
      </CharString>
      <CharString index="30">
        -80 callgsubr
        -102 23 rlineto
        return
      </CharString>
      <CharString index="31">
        -38 callgsubr
        98 -25 211 -330 -218 -299 -90 -23 rlineto
        -36 245 36 vlineto
        -80 19 179 264 163 -261 -82 -21 -69 callgsubr
        -96 24 -220 346 202 280 88 27 rlineto
        36 -245 -36 vlineto
        88 -26 -166 -243 -155 247 78 -4 callgsubr
        -304 vlineto
        endchar
      </CharString>
      <CharString index="32">
        449 rmoveto
        68 -12 rlineto
        -378 vlineto
        return
      </CharString>
      <CharString index="33">
        406 rmoveto
        -46 100 -300 -74 callsubr
        -37 hlineto
        99 -24 rlineto
        -283 vlineto
        105 -364 rmoveto
        318 200 46 -200 302 -13 callgsubr
      </CharString>
      <CharString index="34">
        80 34 -44 -108 -100 -37 -46 -76 -75 -36 46 103 100 38 49 72 hvcurveto
        267 27 rmoveto
        -170 hlineto
        return
      </CharString>
      <CharString index="35">
        hstem
        189 105 386 116 vstem
        90 713 rmoveto
        99 -24 rlineto
        -629 -74 callsubr
        hlineto
        204 -708 rmoveto
        666 -52 callgsubr
        return
      </CharString>
      <CharString index="36">
        36 448 -20 hstem
        120 95 185 94 186 94 vstem
        624 447 rmoveto
        56 -22 rlineto
        -389 -186 391 vlineto
        55 20 rlineto
        37 -203 -37 vlineto
        54 -20 rlineto
        -391 -185 389 vlineto
        56 4 callgsubr
        -228 -40 callsubr
        return
      </CharString>
      <CharString index="37">
        9 -35 -32 4 -29 hhcurveto
        -125 -78 -75 -114 -72 32 -60 72 -37 hvcurveto
        return
      </CharString>
      <CharString index="38">
        rlineto
        -37 -61 callgsubr
        vlineto
        return
      </CharString>
      <CharString index="39">
        42 -12 -21 255 35 165 38 return
      </CharString>
      <CharString index="40">
        -95 callgsubr
        endchar
      </CharString>
      <CharString index="41">
        15 24 40 14 32 hhcurveto
        73 45 -22 -100 hvcurveto
        -60 vlineto
        -221 -5 -107 -28 -121 vvcurveto
        -81 67 -47 108 76 87 20 70 32 vhcurveto
        -57 35 62 -33 97 hhcurveto
        85 68 25 40 35 hvcurveto
        19 callsubr
        -103 -38 68 141 -1 vhcurveto
        return
      </CharString>
      <CharString index="42">
        -9 -68 callgsubr
        return
      </CharString>
      <CharString index="43">
        145 rlineto
        -134 hlineto
        return
      </CharString>
      <CharString index="44">
        -55 callgsubr
        -20 return
      </CharString>
      <CharString index="45">
        444 rmoveto
        73 -21 rlineto
        -366 vlineto
        -73 -20 rlineto
        -37 324 vlineto
        84 42 64 65 65 -42 65 -84 hvcurveto
        -156 161 hlineto
        86 24 rlineto
        37 -254 vlineto
        266 -258 rmoveto
        60 30 -47 -47 -47 -30 -46 -60 hvcurveto
        -98 187 hlineto
        return
      </CharString>
      <CharString index="46">
        304 37 return
      </CharString>
      <CharString index="47">
        117 92 68 117 52 -13 30 -17 25 hvcurveto
        90 35 rlineto
        return
      </CharString>
      <CharString index="48">
        -24 rlineto
        -629 vlineto
        return
      </CharString>
      <CharString index="49">
        -53 callsubr
        -99 -23 rlineto
        return
      </CharString>
      <CharString index="50">
        217 77 57 141 181 -130 26 -172 hvcurveto
        return
      </CharString>
      <CharString index="51">
        70 -70 156 hstemhm
        return
      </CharString>
      <CharString index="52">
        -21 750 return
      </CharString>
      <CharString index="53">
        vlineto
        67 -15 -62 49 -91 hhcurveto
        -121 -87 -90 -163 -164 88 -86 121 81 65 37 87 25 hvcurveto
        return
      </CharString>
      <CharString index="54">
        111 54 -44 -119 -119 -54 -43 -111 hvcurveto
        return
      </CharString>
      <CharString index="55">
        66 vlineto
        218 102 -95 -239 -254 -116 -78 -221 hvcurveto
        return
      </CharString>
      <CharString index="56">
        -6 callsubr
        77 -22 rlineto
        -368 vlineto
        -77 -21 -47 callgsubr
        -83 22 rlineto
        return
      </CharString>
      <CharString index="57">
        -18 callsubr
        -102 22 rlineto
        648 186 vlineto
        return
      </CharString>
      <CharString index="58">
        39 146 rlineto
        183 -647 hlineto
        -97 -23 rlineto
        return
      </CharString>
      <CharString index="59">
        213 -19 40 707 40 return
      </CharString>
      <CharString index="60">
        rlineto
        -37 -11 callsubr
        vlineto
        return
      </CharString>
      <CharString index="61">
        -23 callgsubr
        hlineto
        return
      </CharString>
      <CharString index="62">
        -25 callgsubr
        -29 25 -36 hvcurveto
        return
      </CharString>
      <CharString index="63">
        271 -15 46 719 return
      </CharString>
      <CharString index="64">
        -20 hstemhm
        60 173 -95 95 hintmask 11101000
        -30 callgsubr
        hintmask 11110000
        -66 callsubr
        return
      </CharString>
      <CharString index="65">
        rmoveto
        -43 -24 -33 -32 -37 28 -29 39 37 28 27 40 36 -28 28 -37 hvcurveto
        endchar
      </CharString>
      <CharString index="66">
        -44 callgsubr
        -20 return
      </CharString>
      <CharString index="67">
        100 -3 callgsubr
        return
      </CharString>
      <CharString index="68">
        -236 -21 180 return
      </CharString>
      <CharString index="69">
        713 rmoveto
        return
      </CharString>
      <CharString index="70">
        rmoveto
        45 24 -43 -43 -44 -24 -41 -45 return
      </CharString>
      <CharString index="71">
        -101 176 37 vlineto
        return
      </CharString>
      <CharString index="72">
        -9 41 420 42 return
      </CharString>
      <CharString index="73">
        hlineto
        -57 callgsubr
        return
      </CharString>
      <CharString index="74">
        -127 -66 -79 -88 -83 -42 69 139 137 41 68 83 return
      </CharString>
      <CharString index="75">
        9 callsubr
        244 87 return
      </CharString>
      <CharString index="76">
        83 -21 380 -20 hstem
        211 62 rmoveto
        45 hlineto
        -96 190 95 190 rlineto
        -44 hlineto
        -156 -190 rlineto
        return
      </CharString>
      <CharString index="77">
        66 -33 callsubr
        72 -12 rlineto
        -644 vlineto
        return
      </CharString>
      <CharString index="78">
        41 414 42 156 -20 hstemhm
        106 93 -93 239 return
      </CharString>
      <CharString index="79">
        hstem
        187 105 280 116 vstem
        return
      </CharString>
      <CharString index="80">
        50 hmoveto
        252 37 hlineto
        -90 21 75 194 rlineto
        302 hlineto
        79 -194 -87 -37 callsubr
        return
      </CharString>
      <CharString index="81">
        -168 vlineto
        -76 -302 rmoveto
        89 66 -80 -127 return
      </CharString>
      <CharString index="82">
        -29 -24 callgsubr
        return
      </CharString>
      <CharString index="83">
        39 39 26 27 39 39 return
      </CharString>
      <CharString index="84">
        rlineto
        -127 return
      </CharString>
      <CharString index="85">
        17 callgsubr
        -37 hlineto
        -53 callsubr
        return
      </CharString>
      <CharString index="86">
        21 22 callgsubr
        return
      </CharString>
      <CharString index="87">
        -20 hstem
        47 101 286 100 vstem
        return
      </CharString>
      <CharString index="88">
        vlineto
        99 -3 callgsubr
        return
      </CharString>
      <CharString index="89">
        164 -20 hstemhm
        return
      </CharString>
      <CharString index="90">
        rlineto
        -630 vlineto
        return
      </CharString>
      <CharString index="91">
        60 116 return
      </CharString>
      <CharString index="92">
        223 hmoveto
        return
      </CharString>
      <CharString index="93">
        43 rmoveto
        -228 -163 -180 -207 -210 176 -176 210 return
      </CharString>
      <CharString index="94">
        -52 callgsubr
        endchar
      </CharString>
      <CharString index="95">
        69 21 -21 446 47 return
      </CharString>
      <CharString index="96">
        hstemhm
        45 167 return
      </CharString>
      <CharString index="97">
        -22 rlineto
        -37 return
      </CharString>
      <CharString index="98">
        815 237 rmoveto
        73 -28 185 -186 -72 -66 -39 -44 -39 vhcurveto
        return
      </CharString>
      <CharString index="99">
        -11 -115 -143 -98 142 61 12 rlineto
        37 -254 vlineto
        endchar
      </CharString>
      <CharString index="100">
        -20 hstemhm
        62 171 -95 95 return
      </CharString>
      <CharString index="101">
        -21 252 -20 hstem
        return
      </CharString>
      <CharString index="102">
        -37 vlineto
        -15 callsubr
        return
      </CharString>
      <CharString index="103">
        21 rlineto
        37 return
      </CharString>
      <CharString index="104">
        23 rlineto
        37 return
      </CharString>
      <CharString index="105">
        74 -140 rmoveto
        137 252 -46 callgsubr
        -56 -252 rlineto
        return
      </CharString>
</ttFont>
